<svg version="1.1" viewBox="0.0 0.0 493.0 438.0" fill="none" stroke="none" stroke-linecap="square" stroke-miterlimit="10" width="493" height="438" xmlns:xlink="http://www.w3.org/1999/xlink" xmlns="http://www.w3.org/2000/svg"><path fill="#ffffff" d="M0 0L493.0 0L493.0 438.0L0 438.0L0 0Z" fill-rule="nonzero"/><path stroke="#333333" stroke-width="1.0" stroke-linecap="butt" d="M104.5 318.5L471.5 318.5" fill-rule="nonzero"/><path fill="#eeeeee" d="M90.5 332.5L104.5 319.5L471.5 319.5L457.5 332.5Z" fill-rule="nonzero"/><path stroke="#cccccc" stroke-width="1.0" stroke-linecap="butt" d="M104.5 268.5L471.5 268.5" fill-rule="nonzero"/><path stroke="#cccccc" stroke-width="1.0" stroke-linecap="butt" d="M104.5 217.5L471.5 217.5" fill-rule="nonzero"/><path stroke="#cccccc" stroke-width="1.0" stroke-linecap="butt" d="M104.5 167.5L471.5 167.5" fill-rule="nonzero"/><path stroke="#cccccc" stroke-width="1.0" stroke-linecap="butt" d="M104.5 117.5L471.5 117.5" fill-rule="nonzero"/><path stroke="#cccccc" stroke-width="1.0" stroke-linecap="butt" d="M104.5 67.5L471.5 67.5" fill-rule="nonzero"/><clipPath id="id_0"><path d="M90.9 67.5L471.1 67.5L471.1 332.31827L90.9 332.31827L90.9 67.5Z" clip-rule="nonzero"/></clipPath><path fill="#2e7958" clip-path="url(#id_0)" d="M147.0 138.0L147.0 318.0L138.0 327.0L138.0 147.0Z" fill-rule="nonzero"/><path fill="#6cc89f" clip-path="url(#id_0)" d="M138.0 147.0L104.0 147.0L113.0 138.0L147.0 138.0Z" fill-rule="nonzero"/><path stroke="#000000" stroke-width="2.0" stroke-linecap="butt" stroke-opacity="0.0" clip-path="url(#id_0)" d="M138.0 327.0L104.0 327.0L104.0 147.0L138.0 147.0Z" fill-rule="nonzero"/><path fill="#47ba87" clip-path="url(#id_0)" d="M138.0 327.0L104.0 327.0L104.0 147.0L138.0 147.0Z" fill-rule="nonzero"/><path fill="#385e83" clip-path="url(#id_0)" d="M199.0 312.0L199.0 318.0L190.0 327.0L190.0 321.0Z" fill-rule="nonzero"/><path fill="#78a6d5" clip-path="url(#id_0)" d="M190.0 321.0L156.0 321.0L165.0 312.0L199.0 312.0Z" fill-rule="nonzero"/><path stroke="#000000" stroke-width="2.0" stroke-linecap="butt" stroke-opacity="0.0" clip-path="url(#id_0)" d="M190.0 327.0L156.0 327.0L156.0 321.0L190.0 321.0Z" fill-rule="nonzero"/><path fill="#5690ca" clip-path="url(#id_0)" d="M190.0 327.0L156.0 327.0L156.0 321.0L190.0 321.0Z" fill-rule="nonzero"/><path fill="#2e7958" clip-path="url(#id_0)" d="M251.0 86.0L251.0 318.0L242.0 327.0L242.0 95.0Z" fill-rule="nonzero"/><path fill="#6cc89f" clip-path="url(#id_0)" d="M242.0 95.0L208.0 95.0L217.0 86.0L251.0 86.0Z" fill-rule="nonzero"/><path stroke="#000000" stroke-width="2.0" stroke-linecap="butt" stroke-opacity="0.0" clip-path="url(#id_0)" d="M242.0 327.0L208.0 327.0L208.0 95.0L242.0 95.0Z" fill-rule="nonzero"/><path fill="#47ba87" clip-path="url(#id_0)" d="M242.0 327.0L208.0 327.0L208.0 95.0L242.0 95.0Z" fill-rule="nonzero"/><path fill="#385e83" clip-path="url(#id_0)" d="M303.0 260.0L303.0 318.0L294.0 327.0L294.0 269.0Z" fill-rule="nonzero"/><path fill="#78a6d5" clip-path="url(#id_0)" d="M294.0 269.0L260.0 269.0L269.0 260.0L303.0 260.0Z" fill-rule="nonzero"/><path stroke="#000000" stroke-width="2.0" stroke-linecap="butt" stroke-opacity="0.0" clip-path="url(#id_0)" d="M294.0 327.0L260.0 327.0L260.0 269.0L294.0 269.0Z" fill-rule="nonzero"/><path fill="#5690ca" clip-path="url(#id_0)" d="M294.0 327.0L260.0 327.0L260.0 269.0L294.0 269.0Z" fill-rule="nonzero"/><path fill="#2b569f" clip-path="url(#id_0)" d="M354.0 314.0L354.0 318.0L345.0 327.0L345.0 323.0Z" fill-rule="nonzero"/><path fill="#689df6" clip-path="url(#id_0)" d="M345.0 323.0L311.0 323.0L320.0 314.0L354.0 314.0Z" fill-rule="nonzero"/><path stroke="#000000" stroke-width="2.0" stroke-linecap="butt" stroke-opacity="0.0" clip-path="url(#id_0)" d="M345.0 327.0L311.0 327.0L311.0 323.0L345.0 323.0Z" fill-rule="nonzero"/><path fill="#4285f4" clip-path="url(#id_0)" d="M345.0 327.0L311.0 327.0L311.0 323.0L345.0 323.0Z" fill-rule="nonzero"/><path fill="#2e7958" clip-path="url(#id_0)" d="M406.0 153.0L406.0 318.0L397.0 327.0L397.0 162.0Z" fill-rule="nonzero"/><path fill="#6cc89f" clip-path="url(#id_0)" d="M397.0 162.0L363.0 162.0L372.0 153.0L406.0 153.0Z" fill-rule="nonzero"/><path stroke="#000000" stroke-width="2.0" stroke-linecap="butt" stroke-opacity="0.0" clip-path="url(#id_0)" d="M397.0 327.0L363.0 327.0L363.0 162.0L397.0 162.0Z" fill-rule="nonzero"/><path fill="#47ba87" clip-path="url(#id_0)" d="M397.0 327.0L363.0 327.0L363.0 162.0L397.0 162.0Z" fill-rule="nonzero"/><path fill="#385e83" clip-path="url(#id_0)" d="M458.0 313.0L458.0 318.0L449.0 327.0L449.0 322.0Z" fill-rule="nonzero"/><path fill="#78a6d5" clip-path="url(#id_0)" d="M449.0 322.0L415.0 322.0L424.0 313.0L458.0 313.0Z" fill-rule="nonzero"/><path stroke="#000000" stroke-width="2.0" stroke-linecap="butt" stroke-opacity="0.0" clip-path="url(#id_0)" d="M449.0 327.0L415.0 327.0L415.0 322.0L449.0 322.0Z" fill-rule="nonzero"/><path fill="#5690ca" clip-path="url(#id_0)" d="M449.0 327.0L415.0 327.0L415.0 322.0L449.0 322.0Z" fill-rule="nonzero"/><path fill="#000000" d="M32.900005 261.1906L25.32188 261.1906L25.32188 264.01874L24.306255 264.01874L24.306255 257.20624L25.32188 257.20624L25.32188 260.05L32.900005 260.05L32.900005 261.1906ZM25.525005 256.5031L24.306255 256.5031L24.306255 255.44063L25.525005 255.44063L25.525005 256.5031ZM32.900005 256.5031L26.681255 256.5031L26.681255 255.44063L32.900005 255.44063L32.900005 256.5031ZM32.900005 253.50313L26.681255 253.50313L26.681255 252.56563L27.556255 252.56563Q27.087505 252.26875 26.82188 251.78438Q26.54063 251.3 26.54063 250.675Q26.54063 249.9875 26.82188 249.55Q27.10313 249.09688 27.618755 248.925Q26.54063 248.175 26.54063 247.00313Q26.54063 246.06563 27.056255 245.58125Q27.556255 245.08125 28.63438 245.08125L32.900005 245.08125L32.900005 246.12813L28.97813 246.12813Q28.35313 246.12813 28.07188 246.2375Q27.79063 246.33125 27.618755 246.59688Q27.44688 246.8625 27.44688 247.2375Q27.44688 247.89375 27.88438 248.33125Q28.32188 248.75313 29.29063 248.75313L32.900005 248.75313L32.900005 249.81563L28.85313 249.81563Q28.150005 249.81563 27.806255 250.08125Q27.44688 250.33125 27.44688 250.90938Q27.44688 251.3625 27.681255 251.7375Q27.91563 252.1125 28.368755 252.28438Q28.82188 252.45625 29.66563 252.45625L32.900005 252.45625L32.900005 253.50313ZM30.900005 238.25313L31.025005 237.15938Q31.97813 237.40938 32.50938 238.1125Q33.04063 238.81563 33.04063 239.89375Q33.04063 241.25313 32.19688 242.06563Q31.35313 242.8625 29.837505 242.8625Q28.275005 242.8625 27.41563 242.05Q26.54063 241.2375 26.54063 239.95625Q26.54063 238.70625 27.38438 237.925Q28.22813 237.12813 29.775005 237.12813Q29.868755 237.12813 30.056255 237.12813L30.056255 241.76875Q31.087505 241.70625 31.63438 241.19063Q32.16563 240.675 32.16563 239.89375Q32.16563 239.31563 31.868755 238.90938Q31.556255 238.4875 30.900005 238.25313ZM29.19688 241.70625L29.19688 238.2375Q28.400005 238.3 28.00938 238.62813Q27.400005 239.14375 27.400005 239.94063Q27.400005 240.675 27.88438 241.175Q28.368755 241.65938 29.19688 241.70625ZM32.900005 235.2375L31.69688 235.2375L31.69688 234.03438L32.900005 234.03438Q33.556255 234.03438 33.962505 234.26875Q34.38438 234.50313 34.60313 235.00313L34.150005 235.3Q34.00938 234.97188 33.712505 234.81563Q33.431255 234.65938 32.900005 234.62813L32.900005 235.2375ZM32.900005 229.50313L26.681255 229.50313L26.681255 228.56563L27.556255 228.56563Q27.087505 228.26875 26.82188 227.78438Q26.54063 227.3 26.54063 226.675Q26.54063 225.9875 26.82188 225.55Q27.10313 225.09688 27.618755 224.925Q26.54063 224.175 26.54063 223.00313Q26.54063 222.06563 27.056255 221.58125Q27.556255 221.08125 28.63438 221.08125L32.900005 221.08125L32.900005 222.12813L28.97813 222.12813Q28.35313 222.12813 28.07188 222.2375Q27.79063 222.33125 27.618755 222.59688Q27.44688 222.8625 27.44688 223.2375Q27.44688 223.89375 27.88438 224.33125Q28.32188 224.75313 29.29063 224.75313L32.900005 224.75313L32.900005 225.81563L28.85313 225.81563Q28.150005 225.81563 27.806255 226.08125Q27.44688 226.33125 27.44688 226.90938Q27.44688 227.3625 27.681255 227.7375Q27.91563 228.1125 28.368755 228.28438Q28.82188 228.45625 29.66563 228.45625L32.900005 228.45625L32.900005 229.50313ZM31.04063 218.925L30.88438 217.89375Q31.50938 217.8 31.837505 217.40938Q32.16563 217.00313 32.16563 216.26875Q32.16563 215.55 31.88438 215.20625Q31.587505 214.84688 31.181255 214.84688Q30.82188 214.84688 30.618755 215.15938Q30.47813 215.37813 30.25938 216.2375Q29.962505 217.39375 29.75938 217.84688Q29.54063 218.28438 29.16563 218.51875Q28.79063 218.75313 28.32188 218.75313Q27.91563 218.75313 27.556255 218.56563Q27.19688 218.37813 26.962505 218.05Q26.79063 217.8 26.66563 217.37813Q26.54063 216.95625 26.54063 216.45625Q26.54063 215.7375 26.75938 215.19063Q26.962505 214.62813 27.32188 214.3625Q27.681255 214.09688 28.275005 214.00313L28.41563 215.03438Q27.94688 215.09688 27.681255 215.44063Q27.400005 215.76875 27.400005 216.39375Q27.400005 217.1125 27.650005 217.425Q27.88438 217.7375 28.212505 217.7375Q28.41563 217.7375 28.57188 217.6125Q28.743755 217.47188 28.85313 217.20625Q28.91563 217.05 29.118755 216.26875Q29.431255 215.14375 29.618755 214.70625Q29.806255 214.26875 30.16563 214.01875Q30.525005 213.76875 31.07188 213.76875Q31.60313 213.76875 32.07188 214.08125Q32.525005 214.37813 32.79063 214.95625Q33.04063 215.53438 33.04063 216.26875Q33.04063 217.4875 32.54063 218.12813Q32.025005 218.75313 31.04063 218.925Z" fill-rule="nonzero"/><path fill="#000000" d="M78.4 318.0839Q78.4 316.55264 78.7125 315.63077Q79.025 314.69327 79.63438 314.19327Q80.25938 313.69327 81.19688 313.69327Q81.88438 313.69327 82.4 313.97452Q82.93125 314.25577 83.275 314.78702Q83.61875 315.30264 83.80625 316.05264Q83.99375 316.80264 83.99375 318.0839Q83.99375 319.59952 83.68125 320.5214Q83.38438 321.44327 82.75938 321.9589Q82.15 322.4589 81.19688 322.4589Q79.9625 322.4589 79.24375 321.56827Q78.4 320.50577 78.4 318.0839ZM79.47813 318.0839Q79.47813 320.19327 79.97813 320.8964Q80.47813 321.59952 81.19688 321.59952Q81.93125 321.59952 82.41563 320.8964Q82.91563 320.19327 82.91563 318.0839Q82.91563 315.9589 82.41563 315.2714Q81.93125 314.56827 81.18125 314.56827Q80.4625 314.56827 80.025 315.17764Q79.47813 315.9589 79.47813 318.0839Z" fill-rule="nonzero"/><path fill="#000000" d="M58.36875 272.1546L57.321877 272.1546L57.321877 265.43585Q56.93125 265.79523 56.30625 266.17023Q55.696877 266.5296 55.2125 266.70148L55.2125 265.68585Q56.0875 265.26398 56.74375 264.68585Q57.415627 264.0921 57.696877 263.5296L58.36875 263.5296L58.36875 272.1546ZM61.9625 272.1546L61.9625 270.95148L63.165627 270.95148L63.165627 272.1546Q63.165627 272.81085 62.93125 273.2171Q62.696877 273.63898 62.196877 273.85773L61.9 273.4046Q62.228127 273.26398 62.384377 272.9671Q62.540627 272.68585 62.571877 272.1546L61.9625 272.1546ZM64.4 267.92023Q64.4 266.38898 64.7125 265.4671Q65.025 264.5296 65.63438 264.0296Q66.25938 263.5296 67.19688 263.5296Q67.88438 263.5296 68.4 263.81085Q68.93125 264.0921 69.275 264.62335Q69.61875 265.13898 69.80625 265.88898Q69.99375 266.63898 69.99375 267.92023Q69.99375 269.43585 69.68125 270.35773Q69.38438 271.2796 68.75938 271.79523Q68.15 272.29523 67.19688 272.29523Q65.9625 272.29523 65.24375 271.4046Q64.4 270.3421 64.4 267.92023ZM65.47813 267.92023Q65.47813 270.0296 65.97813 270.73273Q66.47813 271.43585 67.19688 271.43585Q67.93125 271.43585 68.41563 270.73273Q68.91563 270.0296 68.91563 267.92023Q68.91563 265.79523 68.41563 265.10773Q67.93125 264.4046 67.18125 264.4046Q66.4625 264.4046 66.025 265.01398Q65.47813 265.79523 65.47813 267.92023ZM71.4 267.92023Q71.4 266.38898 71.7125 265.4671Q72.025 264.5296 72.63438 264.0296Q73.25938 263.5296 74.19688 263.5296Q74.88438 263.5296 75.4 263.81085Q75.93125 264.0921 76.275 264.62335Q76.61875 265.13898 76.80625 265.88898Q76.99375 266.63898 76.99375 267.92023Q76.99375 269.43585 76.68125 270.35773Q76.38438 271.2796 75.75938 271.79523Q75.15 272.29523 74.19688 272.29523Q72.9625 272.29523 72.24375 271.4046Q71.4 270.3421 71.4 267.92023ZM72.47813 267.92023Q72.47813 270.0296 72.97813 270.73273Q73.47813 271.43585 74.19688 271.43585Q74.93125 271.43585 75.41563 270.73273Q75.91563 270.0296 75.91563 267.92023Q75.91563 265.79523 75.41563 265.10773Q74.93125 264.4046 74.18125 264.4046Q73.4625 264.4046 73.025 265.01398Q72.47813 265.79523 72.47813 267.92023ZM78.4 267.92023Q78.4 266.38898 78.7125 265.4671Q79.025 264.5296 79.63438 264.0296Q80.25938 263.5296 81.19688 263.5296Q81.88438 263.5296 82.4 263.81085Q82.93125 264.0921 83.275 264.62335Q83.61875 265.13898 83.80625 265.88898Q83.99375 266.63898 83.99375 267.92023Q83.99375 269.43585 83.68125 270.35773Q83.38438 271.2796 82.75938 271.79523Q82.15 272.29523 81.19688 272.29523Q79.9625 272.29523 79.24375 271.4046Q78.4 270.3421 78.4 267.92023ZM79.47813 267.92023Q79.47813 270.0296 79.97813 270.73273Q80.47813 271.43585 81.19688 271.43585Q81.93125 271.43585 82.41563 270.73273Q82.91563 270.0296 82.91563 267.92023Q82.91563 265.79523 82.41563 265.10773Q81.93125 264.4046 81.18125 264.4046Q80.4625 264.4046 80.025 265.01398Q79.47813 265.79523 79.47813 267.92023Z" fill-rule="nonzero"/><path fill="#000000" d="M59.946877 220.97533L59.946877 221.99095L54.259377 221.99095Q54.259377 221.61595 54.384377 221.25658Q54.603127 220.67845 55.071877 220.11595Q55.55625 219.55345 56.4625 218.81908Q57.86875 217.66283 58.353127 216.99095Q58.853127 216.31908 58.853127 215.72533Q58.853127 215.10033 58.4 214.67845Q57.946877 214.24095 57.228127 214.24095Q56.4625 214.24095 56.009377 214.69408Q55.55625 215.1472 55.540627 215.9597L54.4625 215.85033Q54.571877 214.63158 55.290627 214.00658Q56.025 213.36595 57.259377 213.36595Q58.49375 213.36595 59.2125 214.05345Q59.93125 214.74095 59.93125 215.75658Q59.93125 216.2722 59.7125 216.7722Q59.509377 217.25658 59.009377 217.81908Q58.525 218.36595 57.4 219.31908Q56.446877 220.11595 56.165627 220.41283Q55.9 220.69408 55.728127 220.97533L59.946877 220.97533ZM61.9625 221.99095L61.9625 220.78783L63.165627 220.78783L63.165627 221.99095Q63.165627 222.6472 62.93125 223.05345Q62.696877 223.47533 62.196877 223.69408L61.9 223.24095Q62.228127 223.10033 62.384377 222.80345Q62.540627 222.5222 62.571877 221.99095L61.9625 221.99095ZM64.4 217.75658Q64.4 216.22533 64.7125 215.30345Q65.025 214.36595 65.63438 213.86595Q66.25938 213.36595 67.19688 213.36595Q67.88438 213.36595 68.4 213.6472Q68.93125 213.92845 69.275 214.4597Q69.61875 214.97533 69.80625 215.72533Q69.99375 216.47533 69.99375 217.75658Q69.99375 219.2722 69.68125 220.19408Q69.38438 221.11595 68.75938 221.63158Q68.15 222.13158 67.19688 222.13158Q65.9625 222.13158 65.24375 221.24095Q64.4 220.17845 64.4 217.75658ZM65.47813 217.75658Q65.47813 219.86595 65.97813 220.56908Q66.47813 221.2722 67.19688 221.2722Q67.93125 221.2722 68.41563 220.56908Q68.91563 219.86595 68.91563 217.75658Q68.91563 215.63158 68.41563 214.94408Q67.93125 214.24095 67.18125 214.24095Q66.4625 214.24095 66.025 214.85033Q65.47813 215.63158 65.47813 217.75658ZM71.4 217.75658Q71.4 216.22533 71.7125 215.30345Q72.025 214.36595 72.63438 213.86595Q73.25938 213.36595 74.19688 213.36595Q74.88438 213.36595 75.4 213.6472Q75.93125 213.92845 76.275 214.4597Q76.61875 214.97533 76.80625 215.72533Q76.99375 216.47533 76.99375 217.75658Q76.99375 219.2722 76.68125 220.19408Q76.38438 221.11595 75.75938 221.63158Q75.15 222.13158 74.19688 222.13158Q72.9625 222.13158 72.24375 221.24095Q71.4 220.17845 71.4 217.75658ZM72.47813 217.75658Q72.47813 219.86595 72.97813 220.56908Q73.47813 221.2722 74.19688 221.2722Q74.93125 221.2722 75.41563 220.56908Q75.91563 219.86595 75.91563 217.75658Q75.91563 215.63158 75.41563 214.94408Q74.93125 214.24095 74.18125 214.24095Q73.4625 214.24095 73.025 214.85033Q72.47813 215.63158 72.47813 217.75658ZM78.4 217.75658Q78.4 216.22533 78.7125 215.30345Q79.025 214.36595 79.63438 213.86595Q80.25938 213.36595 81.19688 213.36595Q81.88438 213.36595 82.4 213.6472Q82.93125 213.92845 83.275 214.4597Q83.61875 214.97533 83.80625 215.72533Q83.99375 216.47533 83.99375 217.75658Q83.99375 219.2722 83.68125 220.19408Q83.38438 221.11595 82.75938 221.63158Q82.15 222.13158 81.19688 222.13158Q79.9625 222.13158 79.24375 221.24095Q78.4 220.17845 78.4 217.75658ZM79.47813 217.75658Q79.47813 219.86595 79.97813 220.56908Q80.47813 221.2722 81.19688 221.2722Q81.93125 221.2722 82.41563 220.56908Q82.91563 219.86595 82.91563 217.75658Q82.91563 215.63158 82.41563 214.94408Q81.93125 214.24095 81.18125 214.24095Q80.4625 214.24095 80.025 214.85033Q79.47813 215.63158 79.47813 217.75658Z" fill-rule="nonzero"/><path fill="#000000" d="M54.4 169.56168L55.4625 169.42105Q55.634377 170.31168 56.071877 170.71793Q56.509377 171.10855 57.134377 171.10855Q57.884377 171.10855 58.4 170.59293Q58.915627 170.0773 58.915627 169.31168Q58.915627 168.59293 58.43125 168.12418Q57.9625 167.6398 57.228127 167.6398Q56.93125 167.6398 56.478127 167.7648L56.603127 166.8273Q56.7125 166.84293 56.775 166.84293Q57.446877 166.84293 57.978127 166.49918Q58.525 166.1398 58.525 165.40543Q58.525 164.8273 58.134377 164.4523Q57.74375 164.06168 57.11875 164.06168Q56.509377 164.06168 56.0875 164.4523Q55.68125 164.84293 55.571877 165.60855L54.509377 165.42105Q54.696877 164.37418 55.384377 163.79605Q56.071877 163.2023 57.0875 163.2023Q57.790627 163.2023 58.384377 163.5148Q58.978127 163.81168 59.290627 164.3273Q59.603127 164.84293 59.603127 165.43668Q59.603127 165.98355 59.30625 166.4523Q59.009377 166.90543 58.43125 167.17105Q59.18125 167.34293 59.603127 167.90543Q60.025 168.4523 60.025 169.29605Q60.025 170.42105 59.196877 171.2023Q58.384377 171.98355 57.134377 171.98355Q56.009377 171.98355 55.259377 171.31168Q54.509377 170.62418 54.4 169.56168ZM61.9625 171.8273L61.9625 170.62418L63.165627 170.62418L63.165627 171.8273Q63.165627 172.48355 62.93125 172.8898Q62.696877 173.31168 62.196877 173.53043L61.9 173.0773Q62.228127 172.93668 62.384377 172.6398Q62.540627 172.35855 62.571877 171.8273L61.9625 171.8273ZM64.4 167.59293Q64.4 166.06168 64.7125 165.1398Q65.025 164.2023 65.63438 163.7023Q66.25938 163.2023 67.19688 163.2023Q67.88438 163.2023 68.4 163.48355Q68.93125 163.7648 69.275 164.29605Q69.61875 164.81168 69.80625 165.56168Q69.99375 166.31168 69.99375 167.59293Q69.99375 169.10855 69.68125 170.03043Q69.38438 170.9523 68.75938 171.46793Q68.15 171.96793 67.19688 171.96793Q65.9625 171.96793 65.24375 171.0773Q64.4 170.0148 64.4 167.59293ZM65.47813 167.59293Q65.47813 169.7023 65.97813 170.40543Q66.47813 171.10855 67.19688 171.10855Q67.93125 171.10855 68.41563 170.40543Q68.91563 169.7023 68.91563 167.59293Q68.91563 165.46793 68.41563 164.78043Q67.93125 164.0773 67.18125 164.0773Q66.4625 164.0773 66.025 164.68668Q65.47813 165.46793 65.47813 167.59293ZM71.4 167.59293Q71.4 166.06168 71.7125 165.1398Q72.025 164.2023 72.63438 163.7023Q73.25938 163.2023 74.19688 163.2023Q74.88438 163.2023 75.4 163.48355Q75.93125 163.7648 76.275 164.29605Q76.61875 164.81168 76.80625 165.56168Q76.99375 166.31168 76.99375 167.59293Q76.99375 169.10855 76.68125 170.03043Q76.38438 170.9523 75.75938 171.46793Q75.15 171.96793 74.19688 171.96793Q72.9625 171.96793 72.24375 171.0773Q71.4 170.0148 71.4 167.59293ZM72.47813 167.59293Q72.47813 169.7023 72.97813 170.40543Q73.47813 171.10855 74.19688 171.10855Q74.93125 171.10855 75.41563 170.40543Q75.91563 169.7023 75.91563 167.59293Q75.91563 165.46793 75.41563 164.78043Q74.93125 164.0773 74.18125 164.0773Q73.4625 164.0773 73.025 164.68668Q72.47813 165.46793 72.47813 167.59293ZM78.4 167.59293Q78.4 166.06168 78.7125 165.1398Q79.025 164.2023 79.63438 163.7023Q80.25938 163.2023 81.19688 163.2023Q81.88438 163.2023 82.4 163.48355Q82.93125 163.7648 83.275 164.29605Q83.61875 164.81168 83.80625 165.56168Q83.99375 166.31168 83.99375 167.59293Q83.99375 169.10855 83.68125 170.03043Q83.38438 170.9523 82.75938 171.46793Q82.15 171.96793 81.19688 171.96793Q79.9625 171.96793 79.24375 171.0773Q78.4 170.0148 78.4 167.59293ZM79.47813 167.59293Q79.47813 169.7023 79.97813 170.40543Q80.47813 171.10855 81.19688 171.10855Q81.93125 171.10855 82.41563 170.40543Q82.91563 169.7023 82.91563 167.59293Q82.91563 165.46793 82.41563 164.78043Q81.93125 164.0773 81.18125 164.0773Q80.4625 164.0773 80.025 164.68668Q79.47813 165.46793 79.47813 167.59293Z" fill-rule="nonzero"/><path fill="#000000" d="M57.775 121.66365L57.775 119.60115L54.05625 119.60115L54.05625 118.6324L57.978127 113.0699L58.8375 113.0699L58.8375 118.6324L59.99375 118.6324L59.99375 119.60115L58.8375 119.60115L58.8375 121.66365L57.775 121.66365ZM57.775 118.6324L57.775 114.773026L55.0875 118.6324L57.775 118.6324ZM61.9625 121.66365L61.9625 120.460526L63.165627 120.460526L63.165627 121.66365Q63.165627 122.3199 62.93125 122.72615Q62.696877 123.148026 62.196877 123.366776L61.9 122.91365Q62.228127 122.773026 62.384377 122.47615Q62.540627 122.1949 62.571877 121.66365L61.9625 121.66365ZM64.4 117.429276Q64.4 115.898026 64.7125 114.97615Q65.025 114.03865 65.63438 113.53865Q66.25938 113.03865 67.19688 113.03865Q67.88438 113.03865 68.4 113.3199Q68.93125 113.60115 69.275 114.1324Q69.61875 114.648026 69.80625 115.398026Q69.99375 116.148026 69.99375 117.429276Q69.99375 118.9449 69.68125 119.866776Q69.38438 120.78865 68.75938 121.304276Q68.15 121.804276 67.19688 121.804276Q65.9625 121.804276 65.24375 120.91365Q64.4 119.85115 64.4 117.429276ZM65.47813 117.429276Q65.47813 119.53865 65.97813 120.241776Q66.47813 120.9449 67.19688 120.9449Q67.93125 120.9449 68.41563 120.241776Q68.91563 119.53865 68.91563 117.429276Q68.91563 115.304276 68.41563 114.616776Q67.93125 113.91365 67.18125 113.91365Q66.4625 113.91365 66.025 114.523026Q65.47813 115.304276 65.47813 117.429276ZM71.4 117.429276Q71.4 115.898026 71.7125 114.97615Q72.025 114.03865 72.63438 113.53865Q73.25938 113.03865 74.19688 113.03865Q74.88438 113.03865 75.4 113.3199Q75.93125 113.60115 76.275 114.1324Q76.61875 114.648026 76.80625 115.398026Q76.99375 116.148026 76.99375 117.429276Q76.99375 118.9449 76.68125 119.866776Q76.38438 120.78865 75.75938 121.304276Q75.15 121.804276 74.19688 121.804276Q72.9625 121.804276 72.24375 120.91365Q71.4 119.85115 71.4 117.429276ZM72.47813 117.429276Q72.47813 119.53865 72.97813 120.241776Q73.47813 120.9449 74.19688 120.9449Q74.93125 120.9449 75.41563 120.241776Q75.91563 119.53865 75.91563 117.429276Q75.91563 115.304276 75.41563 114.616776Q74.93125 113.91365 74.18125 113.91365Q73.4625 113.91365 73.025 114.523026Q72.47813 115.304276 72.47813 117.429276ZM78.4 117.429276Q78.4 115.898026 78.7125 114.97615Q79.025 114.03865 79.63438 113.53865Q80.25938 113.03865 81.19688 113.03865Q81.88438 113.03865 82.4 113.3199Q82.93125 113.60115 83.275 114.1324Q83.61875 114.648026 83.80625 115.398026Q83.99375 116.148026 83.99375 117.429276Q83.99375 118.9449 83.68125 119.866776Q83.38438 120.78865 82.75938 121.304276Q82.15 121.804276 81.19688 121.804276Q79.9625 121.804276 79.24375 120.91365Q78.4 119.85115 78.4 117.429276ZM79.47813 117.429276Q79.47813 119.53865 79.97813 120.241776Q80.47813 120.9449 81.19688 120.9449Q81.93125 120.9449 82.41563 120.241776Q82.91563 119.53865 82.91563 117.429276Q82.91563 115.304276 82.41563 114.616776Q81.93125 113.91365 81.18125 113.91365Q80.4625 113.91365 80.025 114.523026Q79.47813 115.304276 79.47813 117.429276Z" fill-rule="nonzero"/><path fill="#000000" d="M54.4 69.25L55.509377 69.15625Q55.634377 69.96875 56.071877 70.375Q56.525 70.78125 57.165627 70.78125Q57.915627 70.78125 58.446877 70.203125Q58.978127 69.625 58.978127 68.6875Q58.978127 67.78125 58.4625 67.265625Q57.9625 66.734375 57.134377 66.734375Q56.634377 66.734375 56.2125 66.96875Q55.80625 67.203125 55.571877 67.5625L54.5875 67.4375L55.415627 63.03125L59.696877 63.03125L59.696877 64.03125L56.259377 64.03125L55.80625 66.34375Q56.571877 65.796875 57.415627 65.796875Q58.540627 65.796875 59.30625 66.578125Q60.0875 67.359375 60.0875 68.59375Q60.0875 69.75 59.415627 70.609375Q58.5875 71.640625 57.165627 71.640625Q55.99375 71.640625 55.24375 70.984375Q54.509377 70.328125 54.4 69.25ZM61.9625 71.5L61.9625 70.296875L63.165627 70.296875L63.165627 71.5Q63.165627 72.15625 62.93125 72.5625Q62.696877 72.984375 62.196877 73.203125L61.9 72.75Q62.228127 72.609375 62.384377 72.3125Q62.540627 72.03125 62.571877 71.5L61.9625 71.5ZM64.4 67.265625Q64.4 65.734375 64.7125 64.8125Q65.025 63.875 65.63438 63.375Q66.25938 62.875 67.19688 62.875Q67.88438 62.875 68.4 63.15625Q68.93125 63.4375 69.275 63.96875Q69.61875 64.484375 69.80625 65.234375Q69.99375 65.984375 69.99375 67.265625Q69.99375 68.78125 69.68125 69.703125Q69.38438 70.625 68.75938 71.140625Q68.15 71.640625 67.19688 71.640625Q65.9625 71.640625 65.24375 70.75Q64.4 69.6875 64.4 67.265625ZM65.47813 67.265625Q65.47813 69.375 65.97813 70.078125Q66.47813 70.78125 67.19688 70.78125Q67.93125 70.78125 68.41563 70.078125Q68.91563 69.375 68.91563 67.265625Q68.91563 65.140625 68.41563 64.453125Q67.93125 63.75 67.18125 63.75Q66.4625 63.75 66.025 64.359375Q65.47813 65.140625 65.47813 67.265625ZM71.4 67.265625Q71.4 65.734375 71.7125 64.8125Q72.025 63.875 72.63438 63.375Q73.25938 62.875 74.19688 62.875Q74.88438 62.875 75.4 63.15625Q75.93125 63.4375 76.275 63.96875Q76.61875 64.484375 76.80625 65.234375Q76.99375 65.984375 76.99375 67.265625Q76.99375 68.78125 76.68125 69.703125Q76.38438 70.625 75.75938 71.140625Q75.15 71.640625 74.19688 71.640625Q72.9625 71.640625 72.24375 70.75Q71.4 69.6875 71.4 67.265625ZM72.47813 67.265625Q72.47813 69.375 72.97813 70.078125Q73.47813 70.78125 74.19688 70.78125Q74.93125 70.78125 75.41563 70.078125Q75.91563 69.375 75.91563 67.265625Q75.91563 65.140625 75.41563 64.453125Q74.93125 63.75 74.18125 63.75Q73.4625 63.75 73.025 64.359375Q72.47813 65.140625 72.47813 67.265625ZM78.4 67.265625Q78.4 65.734375 78.7125 64.8125Q79.025 63.875 79.63438 63.375Q80.25938 62.875 81.19688 62.875Q81.88438 62.875 82.4 63.15625Q82.93125 63.4375 83.275 63.96875Q83.61875 64.484375 83.80625 65.234375Q83.99375 65.984375 83.99375 67.265625Q83.99375 68.78125 83.68125 69.703125Q83.38438 70.625 82.75938 71.140625Q82.15 71.640625 81.19688 71.640625Q79.9625 71.640625 79.24375 70.75Q78.4 69.6875 78.4 67.265625ZM79.47813 67.265625Q79.47813 69.375 79.97813 70.078125Q80.47813 70.78125 81.19688 70.78125Q81.93125 70.78125 82.41563 70.078125Q82.91563 69.375 82.91563 67.265625Q82.91563 65.140625 82.41563 64.453125Q81.93125 63.75 81.18125 63.75Q80.4625 63.75 80.025 64.359375Q79.47813 65.140625 79.47813 67.265625Z" fill-rule="nonzero"/><path fill="#000000" d="M106.73224 368.45868L98.3022 364.73532L99.17503 363.8625L105.17439 366.70197Q105.89255 367.04446 106.489174 367.37592Q106.13562 366.7351 105.82626 366.05008L103.04203 359.99548L103.85962 359.1779L107.56088 367.63004L106.73224 368.45868ZM112.742645 362.44827L112.09078 361.7964Q112.32281 363.067 111.43892 363.95087Q111.05222 364.33755 110.566086 364.53644Q110.07995 364.71323 109.69325 364.65796Q109.2955 364.59167 108.89776 364.3265Q108.64364 364.1608 108.1575 363.67465L105.43956 360.9567L106.190865 360.2054L108.63259 362.64713Q109.207115 363.22165 109.46123 363.3874Q109.81478 363.60837 110.21253 363.56418Q110.61028 363.49786 110.95278 363.15536Q111.28424 362.8239 111.40578 362.3709Q111.527306 361.89584 111.35053 361.47598Q111.18481 361.0451 110.62133 360.48163L108.26799 358.1283L109.00824 357.38803L113.40556 361.78534L112.742645 362.44827ZM116.39972 355.96277L117.261505 355.27777Q117.75869 356.1285 117.63715 357.00134Q117.51562 357.87418 116.75327 358.6365Q115.792046 359.59775 114.6209 359.57565Q113.4608 359.5425 112.38909 358.4708Q111.28424 357.36594 111.2511 356.18375Q111.2069 354.9905 112.112885 354.0845Q112.996765 353.20062 114.14581 353.2448Q115.30591 353.27798 116.39972 354.37177Q116.46601 354.43808 116.59859 354.57065L113.31717 357.85208Q114.09057 358.53708 114.84187 358.55917Q115.58212 358.57022 116.13455 358.0178Q116.54335 357.609 116.62069 357.11182Q116.69803 356.59253 116.39972 355.96277ZM112.7537 357.2002L115.206474 354.74744Q114.5988 354.22815 114.09057 354.18396Q113.295074 354.11768 112.7316 354.68115Q112.21232 355.2004 112.20127 355.89648Q112.20127 356.58148 112.7537 357.2002ZM117.71449 354.02927L118.34426 353.20062Q119.062416 353.8746 119.54855 353.8967Q120.03468 353.9188 120.45453 353.49893Q120.752846 353.20062 120.84123 352.84708Q120.91857 352.48248 120.76389 352.17313Q120.609215 351.84167 120.08993 351.3224L115.902534 347.13498L116.69803 346.33948L120.84123 350.4827Q121.60358 351.24503 121.8356 351.85272Q122.07867 352.44934 121.90189 353.06805Q121.714066 353.67572 121.17268 354.2171Q120.37719 355.0126 119.49331 354.9905Q118.60943 354.9463 117.71449 354.02927ZM121.868744 349.41098L122.55376 348.59338Q123.07304 349.0022 123.55917 349.09058Q124.04531 349.17896 124.64193 348.95798Q125.23855 348.71494 125.757835 348.19565Q126.21082 347.74265 126.43179 347.25653Q126.641716 346.75934 126.575424 346.36157Q126.50913 345.94174 126.23292 345.66553Q125.945656 345.37827 125.57001 345.33408Q125.18331 345.27884 124.664024 345.51083Q124.31047 345.66553 123.27191 346.30634Q122.24439 346.9361 121.73616 347.0908Q121.0622 347.30072 120.52082 347.17917Q119.9684 347.0466 119.54855 346.62674Q119.09556 346.17377 118.95193 345.52188Q118.8083 344.84793 119.10661 344.1519Q119.40492 343.43372 120.01259 342.82605Q120.686554 342.1521 121.4268 341.8538Q122.156006 341.54443 122.86311 341.6991Q123.55917 341.84274 124.1116 342.35095L123.39345 343.1796Q122.75263 342.67136 122.10076 342.74872Q121.4489 342.80396 120.752846 343.5Q120.023636 344.22922 119.957344 344.82584Q119.89105 345.42245 120.26671 345.7981Q120.59816 346.12958 121.04011 346.10745Q121.48205 346.08536 122.675285 345.33408Q123.87958 344.57172 124.40991 344.37283Q125.19436 344.09662 125.82413 344.21817Q126.44284 344.32864 126.940025 344.82584Q127.42616 345.31198 127.58084 346.01907Q127.72447 346.71515 127.44826 347.47748Q127.160995 348.2288 126.50913 348.88065Q125.6805 349.7093 124.884995 350.04074Q124.0895 350.3501 123.28296 350.1844Q122.487465 350.0076 121.868744 349.41098Z" fill-rule="nonzero"/><path fill="#000000" d="M149.55501 373.4526L150.24002 372.635Q150.7593 373.04382 151.24544 373.1322Q151.73157 373.22058 152.32819 372.99963Q152.9248 372.75656 153.44409 372.23727Q153.89708 371.78427 154.11806 371.29816Q154.32797 370.80096 154.26169 370.40323Q154.19539 369.98337 153.91917 369.70715Q153.63191 369.4199 153.25627 369.3757Q152.86957 369.32047 152.35028 369.5525Q151.99673 369.70715 150.95818 370.34796Q149.93065 370.97775 149.42242 371.13242Q148.74846 371.34235 148.20708 371.2208Q147.65466 371.08823 147.23482 370.66837Q146.78181 370.2154 146.63818 369.56354Q146.49455 368.88956 146.79286 368.1935Q147.09119 367.47534 147.69885 366.86768Q148.37282 366.19373 149.11307 365.89542Q149.84227 365.58606 150.54938 365.74072Q151.24544 365.88437 151.79787 366.3926L151.0797 367.22122Q150.43889 366.713 149.78702 366.79034Q149.13516 366.84558 148.4391 367.54166Q147.7099 368.27084 147.6436 368.86746Q147.57732 369.46408 147.95297 369.83975Q148.28442 370.1712 148.72636 370.1491Q149.1683 370.127 150.36154 369.3757Q151.56584 368.61334 152.09618 368.4145Q152.88062 368.13828 153.51038 368.2598Q154.1291 368.37027 154.62628 368.86746Q155.11243 369.3536 155.2671 370.0607Q155.41074 370.75677 155.13452 371.5191Q154.84726 372.27042 154.19539 372.92227Q153.36674 373.75092 152.57126 374.08237Q151.77576 374.39175 150.96922 374.226Q150.17372 374.04922 149.55501 373.4526ZM154.86935 367.65213Q153.64296 366.42575 153.73135 365.1662Q153.8087 364.1166 154.62628 363.299Q155.53227 362.39304 156.70341 362.41513Q157.87456 362.41513 158.92416 363.46472Q159.7749 364.31546 160.00693 365.05573Q160.23895 365.79596 160.01797 366.56937Q159.79701 367.32068 159.22247 367.8952Q158.30545 368.81223 157.14536 368.80118Q155.98526 368.76804 154.86935 367.65213ZM155.6317 366.88977Q156.47139 367.72946 157.25584 367.7847Q158.05133 367.82892 158.60376 367.2765Q159.16724 366.713 159.112 365.92856Q159.05675 365.1441 158.19496 364.28232Q157.37738 363.46472 156.58188 363.42053Q155.79744 363.3653 155.24501 363.91772Q154.69258 364.47015 154.73677 365.26566Q154.78096 366.03903 155.6317 366.88977ZM162.27188 364.6469L156.19518 358.57022L156.94649 357.81894L163.02318 363.89563L162.27188 364.6469ZM159.20038 357.2886L158.3386 356.42682L159.0899 355.6755L159.95169 356.5373L159.20038 357.2886ZM164.4153 362.5035L160.01797 358.1062L160.76927 357.3549L165.1666 361.7522L164.4153 362.5035ZM169.38715 357.53168L168.83472 356.97925Q169.06673 358.05093 168.2602 358.85748Q167.72986 359.38782 167.00066 359.5425Q166.2604 359.68613 165.49805 359.4099Q164.7357 359.1337 164.06174 358.45975Q163.40988 357.80786 163.08948 357.04553Q162.76906 356.28317 162.93478 355.56503Q163.08948 354.83582 163.63084 354.29443Q164.0286 353.8967 164.50368 353.75305Q164.97878 353.60944 165.44281 353.67572L163.26625 351.49915L164.0065 350.7589L170.0832 356.8356L169.38715 357.53168ZM164.83514 357.68634Q165.68588 358.53708 166.45927 358.60336Q167.22162 358.6586 167.70776 358.1725Q168.1939 357.68634 168.13866 356.94608Q168.08342 356.20584 167.26582 355.38824Q166.35983 354.48227 165.58644 354.416Q164.8241 354.33862 164.31586 354.84686Q163.81868 355.34406 163.89601 356.0843Q163.96231 356.8135 164.83514 357.68634ZM169.44238 354.02927L170.07214 353.20062Q170.7903 353.8746 171.27644 353.8967Q171.76257 353.9188 172.18242 353.49893Q172.48073 353.20062 172.56912 352.84708Q172.64645 352.48248 172.49178 352.17313Q172.3371 351.84167 171.81783 351.3224L167.63042 347.13498L168.42592 346.33948L172.56912 350.4827Q173.33147 351.24503 173.56349 351.85272Q173.80656 352.44934 173.62978 353.06805Q173.44196 353.67572 172.90057 354.2171Q172.10509 355.0126 171.22119 354.9905Q170.33731 354.9463 169.44238 354.02927ZM173.59663 349.41098L174.28165 348.59338Q174.80093 349.0022 175.28706 349.09058Q175.7732 349.17896 176.36983 348.95798Q176.96645 348.71494 177.48572 348.19565Q177.93872 347.74265 178.15968 347.25653Q178.36961 346.75934 178.30331 346.36157Q178.23703 345.94174 177.96082 345.66553Q177.67355 345.37827 177.2979 345.33408Q176.9112 345.27884 176.39192 345.51083Q176.03836 345.66553 174.9998 346.30634Q173.97229 346.9361 173.46405 347.0908Q172.79008 347.30072 172.24872 347.17917Q171.69629 347.0466 171.27644 346.62674Q170.82346 346.17377 170.67982 345.52188Q170.5362 344.84793 170.8345 344.1519Q171.13281 343.43372 171.74048 342.82605Q172.41444 342.1521 173.1547 341.8538Q173.8839 341.54443 174.591 341.6991Q175.28706 341.84274 175.8395 342.35095L175.12134 343.1796Q174.48051 342.67136 173.82866 342.74872Q173.17679 342.80396 172.48073 343.5Q171.75153 344.22922 171.68524 344.82584Q171.61894 345.42245 171.9946 345.7981Q172.32605 346.12958 172.76799 346.10748Q173.20993 346.08536 174.40318 345.33408Q175.60747 344.57172 176.1378 344.37283Q176.92224 344.09662 177.55202 344.21817Q178.17073 344.32864 178.66792 344.82584Q179.15405 345.31198 179.30873 346.01907Q179.45236 346.71515 179.17615 347.47748Q178.88889 348.2288 178.23703 348.88065Q177.40839 349.7093 176.61288 350.04074Q175.8174 350.3501 175.01085 350.1844Q174.21535 350.0076 173.59663 349.41098Z" fill-rule="nonzero"/><path fill="#000000" d="M185.43929 393.2074L177.00925 389.48404L177.88208 388.6112L183.88144 391.45068Q184.5996 391.79318 185.19621 392.12466Q184.84267 391.48383 184.53331 390.79883L181.74907 384.74423L182.56667 383.92664L186.26793 392.37878L185.43929 393.2074ZM191.44969 387.197L190.79782 386.54514Q191.02985 387.81573 190.14597 388.69962Q189.75926 389.0863 189.27313 389.2852Q188.78699 389.46194 188.4003 389.4067Q188.00255 389.34042 187.6048 389.07526Q187.35068 388.90952 186.86455 388.4234L184.1466 385.70544L184.8979 384.95416L187.33963 387.39587Q187.91415 387.9704 188.16827 388.13614Q188.52182 388.3571 188.91957 388.3129Q189.31732 388.2466 189.65982 387.9041Q189.99129 387.57266 190.11282 387.11966Q190.23434 386.64456 190.05757 386.22473Q189.89185 385.79382 189.32837 385.23035L186.97504 382.877L187.71529 382.13678L192.11261 386.5341L191.44969 387.197ZM195.10677 380.71152L195.96855 380.0265Q196.46573 380.87723 196.3442 381.75006Q196.22266 382.6229 195.46031 383.38525Q194.49908 384.34647 193.32794 384.32437Q192.16785 384.29123 191.09615 383.2195Q189.99129 382.1147 189.95815 380.93246Q189.91394 379.73923 190.81993 378.83325Q191.70381 377.94937 192.85286 377.99356Q194.01295 378.0267 195.10677 379.1205Q195.17305 379.1868 195.30563 379.3194L192.02422 382.6008Q192.7976 383.28583 193.54892 383.30792Q194.28917 383.31897 194.8416 382.76654Q195.2504 382.35773 195.32773 381.86057Q195.40508 381.34128 195.10677 380.71152ZM191.46074 381.94894L193.91351 379.49615Q193.30585 378.9769 192.7976 378.93268Q192.00212 378.8664 191.43864 379.42987Q190.91936 379.94916 190.90831 380.6452Q190.90831 381.33023 191.46074 381.94894ZM196.3442 378.65646L195.5929 377.90518L197.89099 375.6071L198.64229 376.35837L196.3442 378.65646ZM196.07903 372.13785L195.21724 371.27606L195.96855 370.52475L196.83034 371.38654L196.07903 372.13785ZM201.29395 377.35275L196.89662 372.95544L197.64792 372.20413L202.04524 376.60144L201.29395 377.35275ZM203.41527 375.2314L199.01794 370.8341L199.68086 370.1712L200.29958 370.78992Q200.06755 369.58563 200.98459 368.6686Q201.38234 368.27084 201.85742 368.083Q202.34355 367.88416 202.7413 367.95044Q203.13905 368.01672 203.5147 368.2598Q203.75777 368.43658 204.27705 368.95587L206.98395 371.66275L206.2437 372.403L203.56995 369.72925Q203.10591 369.26523 202.79654 369.13263Q202.48718 369.00006 202.13364 369.08844Q201.76903 369.16577 201.47072 369.46408Q200.99564 369.93918 200.95145 370.60208Q200.90724 371.24292 201.74693 372.08258L204.15552 374.49118L203.41527 375.2314ZM206.75192 369.26523L207.37064 368.42554Q207.87888 368.80118 208.38712 368.757Q208.90639 368.70175 209.42567 368.18246Q209.9339 367.67422 209.9781 367.23227Q210.0223 366.76825 209.73503 366.481Q209.48091 366.22687 209.11632 366.3042Q208.8622 366.35944 208.09985 366.81244Q207.07233 367.4201 206.60829 367.5969Q206.14426 367.75156 205.71336 367.65213Q205.28247 367.5527 204.95102 367.22122Q204.66374 366.93396 204.54222 366.54727Q204.42068 366.16058 204.48697 365.76282Q204.54222 365.4645 204.75214 365.07782Q204.96207 364.69113 205.31561 364.33755Q205.82385 363.82935 206.36522 363.59732Q206.9066 363.3432 207.34854 363.4095Q207.79048 363.47577 208.27663 363.82935L207.64685 364.65796Q207.27121 364.3707 206.84032 364.42596Q206.40942 364.4591 205.96748 364.90103Q205.45924 365.40927 205.41505 365.807Q205.3598 366.19373 205.59183 366.42575Q205.73546 366.56937 205.93433 366.59146Q206.1553 366.61356 206.42047 366.50308Q206.57515 366.4368 207.27121 366.02798Q208.28767 365.45346 208.72961 365.2767Q209.17155 365.0999 209.60245 365.17725Q210.03334 365.2546 210.42004 365.6413Q210.79568 366.01694 210.90617 366.56937Q211.01666 367.0997 210.79568 367.69632Q210.56367 368.2819 210.04439 368.80118Q209.1826 369.66296 208.37605 369.7624Q207.56952 369.83975 206.75192 369.26523ZM215.00519 367.02237L208.91743 360.9346L209.5914 360.26065L210.15488 360.82413Q210.06648 360.2496 210.19907 359.78555Q210.3427 359.3105 210.77359 358.87958Q211.33707 358.3161 212.05522 358.1725Q212.77338 358.02884 213.51363 358.34924Q214.26494 358.6586 214.8947 359.2884Q215.56866 359.96234 215.86697 360.7468Q216.17633 361.52017 215.99956 362.27148Q215.82278 363.0228 215.31454 363.53104Q214.93889 363.90668 214.4859 364.0503Q214.02187 364.1829 213.60202 364.1387L215.74544 366.2821L215.00519 367.02237ZM211.81216 362.4814Q212.66289 363.33215 213.4142 363.39844Q214.15445 363.45367 214.64058 362.96756Q215.13777 362.47037 215.07147 361.69696Q215.00519 360.92355 214.1213 360.03967Q213.28162 359.19998 212.53032 359.1337Q211.76796 359.05637 211.28183 359.5425Q210.80675 360.01758 210.88408 360.82413Q210.96143 361.63068 211.81216 362.4814ZM213.04959 355.16727L212.1878 354.30548L212.9391 353.5542L213.80089 354.416L213.04959 355.16727ZM218.26451 360.3822L213.86719 355.98486L214.61848 355.23355L219.01581 359.6309L218.26451 360.3822ZM220.37477 358.2719L215.97746 353.8746L216.65141 353.20062L217.31433 353.86356Q217.10442 353.1454 217.1707 352.79184Q217.237 352.4162 217.50215 352.15103Q217.8778 351.77536 218.49652 351.6207L218.93846 352.57086Q218.49652 352.68137 218.23135 352.9465Q217.97725 353.20062 217.93304 353.5542Q217.88885 353.88565 218.07668 354.22815Q218.34184 354.75848 218.80588 355.2225L221.11504 357.53168L220.37477 358.2719ZM224.80524 351.01303L225.66704 350.328Q226.16422 351.17874 226.04268 352.05157Q225.92114 352.9244 225.1588 353.68677Q224.19757 354.64798 223.02643 354.6259Q221.86633 354.59274 220.79462 353.52103Q219.68977 352.4162 219.65662 351.23398Q219.61243 350.04074 220.5184 349.13477Q221.4023 348.2509 222.55135 348.29507Q223.71144 348.32822 224.80524 349.42203Q224.87154 349.4883 225.00412 349.6209L221.7227 352.9023Q222.4961 353.58734 223.2474 353.60944Q223.98766 353.62048 224.54008 353.06805Q224.94888 352.65924 225.02621 352.16208Q225.10356 351.6428 224.80524 351.01303ZM221.15923 352.25046L223.612 349.79767Q223.00433 349.2784 222.4961 349.2342Q221.7006 349.1679 221.13713 349.73138Q220.61784 350.25067 220.6068 350.94672Q220.6068 351.63174 221.15923 352.25046ZM231.01453 347.63217L230.4621 347.07974Q230.69412 348.15146 229.88757 348.958Q229.35724 349.4883 228.62804 349.643Q227.88779 349.78662 227.12544 349.5104Q226.36308 349.2342 225.68913 348.56024Q225.03726 347.9084 224.71686 347.14603Q224.39645 346.3837 224.56218 345.66553Q224.71686 344.9363 225.25824 344.39496Q225.65598 343.9972 226.13107 343.85358Q226.60616 343.70993 227.07019 343.7762L224.89363 341.59967L225.63388 340.8594L231.71059 346.9361L231.01453 347.63217ZM226.46252 347.78683Q227.31326 348.63757 228.08665 348.7039Q228.84901 348.75912 229.33514 348.27298Q229.82129 347.78683 229.76604 347.0466Q229.7108 346.30634 228.8932 345.48874Q227.98723 344.58276 227.21382 344.51648Q226.45148 344.43915 225.94324 344.94736Q225.44606 345.44455 225.5234 346.1848Q225.58969 346.914 226.46252 347.78683Z" fill-rule="nonzero"/><path fill="#000000" d="M228.26205 398.20135L228.94705 397.38376Q229.46634 397.79254 229.95247 397.88095Q230.43861 397.96933 231.03523 397.74835Q231.63185 397.50528 232.15114 396.98602Q232.60413 396.53302 232.8251 396.04688Q233.03502 395.5497 232.96873 395.15195Q232.90244 394.73212 232.62622 394.4559Q232.33896 394.16864 231.96332 394.12445Q231.57661 394.06918 231.05733 394.3012Q230.70378 394.4559 229.6652 395.0967Q228.6377 395.72647 228.12947 395.88116Q227.4555 396.0911 226.91412 395.96954Q226.3617 395.83698 225.94185 395.4171Q225.48886 394.96414 225.34523 394.31226Q225.2016 393.6383 225.49991 392.94226Q225.79822 392.2241 226.4059 391.61642Q227.07985 390.94247 227.82011 390.64413Q228.54932 390.33478 229.25642 390.48947Q229.95247 390.6331 230.5049 391.14133L229.78674 391.96997Q229.14594 391.46173 228.49406 391.5391Q227.84221 391.59433 227.14615 392.29037Q226.41695 393.0196 226.35065 393.6162Q226.28436 394.21283 226.66 394.58847Q226.99147 394.91992 227.43341 394.89783Q227.87535 394.87573 229.06859 394.12445Q230.27289 393.3621 230.8032 393.1632Q231.58766 392.887 232.21742 393.00854Q232.83615 393.11902 233.33333 393.6162Q233.81947 394.10236 233.97415 394.80945Q234.11778 395.5055 233.84157 396.26785Q233.5543 397.01917 232.90244 397.67102Q232.07379 398.49966 231.2783 398.83112Q230.4828 399.14047 229.67627 398.97476Q228.88077 398.79797 228.26205 398.20135ZM233.5764 392.40088Q232.35 391.17447 232.4384 389.91495Q232.51573 388.86533 233.33333 388.04773Q234.2393 387.14175 235.41046 387.16385Q236.5816 387.16385 237.63121 388.21347Q238.48195 389.0642 238.71397 389.80447Q238.94598 390.5447 238.72502 391.3181Q238.50404 392.0694 237.92952 392.64392Q237.0125 393.56097 235.8524 393.54993Q234.6923 393.51678 233.5764 392.40088ZM234.33875 391.63852Q235.17844 392.4782 235.96289 392.53345Q236.75838 392.57764 237.3108 392.0252Q237.87428 391.46173 237.81905 390.6773Q237.7638 389.89285 236.90201 389.03107Q236.08441 388.21347 235.28893 388.16928Q234.50447 388.11404 233.95204 388.66647Q233.39963 389.21887 233.44382 390.01437Q233.488 390.78778 234.33875 391.63852ZM240.97893 389.39566L234.90222 383.31897L235.65352 382.56766L241.73022 388.64435L240.97893 389.39566ZM237.90742 382.03732L237.04564 381.17554L237.79694 380.42426L238.65872 381.28604L237.90742 382.03732ZM243.12234 387.25226L238.72502 382.85492L239.47632 382.10364L243.87364 386.50095L243.12234 387.25226ZM248.09418 382.28043L247.54175 381.728Q247.77376 382.79968 246.96722 383.60623Q246.43689 384.13657 245.70769 384.29126Q244.96744 384.43488 244.2051 384.15866Q243.44275 383.88245 242.76878 383.20847Q242.11693 382.5566 241.79651 381.79425Q241.47609 381.03192 241.64183 380.31378Q241.79651 379.58456 242.33788 379.04318Q242.73563 378.64545 243.21072 378.5018Q243.6858 378.3582 244.14984 378.42447L241.97328 376.2479L242.71353 375.50766L248.79024 381.58435L248.09418 382.28043ZM243.54218 382.4351Q244.39291 383.28583 245.1663 383.3521Q245.92867 383.40735 246.4148 382.92123Q246.90092 382.4351 246.84569 381.69482Q246.79045 380.9546 245.97285 380.137Q245.06688 379.23102 244.29347 379.16473Q243.53113 379.08737 243.02289 379.5956Q242.52571 380.0928 242.60304 380.83304Q242.66934 381.56226 243.54218 382.4351ZM248.07208 378.6565L247.32077 377.90518L249.61887 375.6071L250.37018 376.3584L248.07208 378.6565ZM247.80692 372.13785L246.94513 371.27606L247.69643 370.52475L248.55821 371.38654L247.80692 372.13785ZM253.02182 377.35275L248.6245 372.95544L249.37581 372.20413L253.77312 376.60147L253.02182 377.35275ZM255.14314 375.23145L250.74582 370.8341L251.40874 370.1712L252.02745 370.78992Q251.79544 369.58563 252.71246 368.6686Q253.11021 368.27084 253.5853 368.08304Q254.07144 367.88416 254.46918 367.95044Q254.86693 368.01675 255.24258 368.2598Q255.48564 368.43658 256.00494 368.95587L258.71182 371.66275L257.97156 372.403L255.29782 369.72928Q254.83379 369.26523 254.52443 369.13266Q254.21507 369.00006 253.86151 369.08844Q253.49692 369.1658 253.1986 369.4641Q252.72351 369.93918 252.67932 370.6021Q252.63513 371.24292 253.47481 372.0826L255.88339 374.49118L255.14314 375.23145ZM258.4798 369.26523L259.0985 368.42554Q259.60675 368.80118 260.115 368.757Q260.63428 368.70175 261.15356 368.18246Q261.66177 367.67422 261.706 367.2323Q261.75018 366.76825 261.46292 366.481Q261.2088 366.22687 260.84418 366.30423Q260.5901 366.35947 259.82773 366.81244Q258.8002 367.42014 258.33618 367.5969Q257.87213 367.7516 257.44125 367.65213Q257.01035 367.5527 256.6789 367.22125Q256.39163 366.934 256.27008 366.54727Q256.14856 366.16058 256.21484 365.76285Q256.27008 365.46454 256.48 365.07782Q256.68994 364.69113 257.0435 364.3376Q257.55173 363.82935 258.0931 363.59732Q258.6345 363.3432 259.07642 363.4095Q259.51837 363.4758 260.00452 363.82935L259.37473 364.658Q258.99908 364.37073 258.5682 364.42596Q258.1373 364.4591 257.69534 364.90106Q257.18713 365.40927 257.14294 365.80704Q257.08768 366.19373 257.3197 366.42575Q257.46335 366.5694 257.6622 366.5915Q257.88318 366.6136 258.14835 366.50308Q258.30304 366.4368 258.99908 366.028Q260.01556 365.4535 260.4575 365.2767Q260.89944 365.0999 261.33032 365.17728Q261.76123 365.2546 262.14792 365.6413Q262.52356 366.01697 262.63406 366.5694Q262.74454 367.0997 262.52356 367.69632Q262.29156 368.28192 261.77228 368.80118Q260.9105 369.66296 260.10394 369.76242Q259.2974 369.83975 258.4798 369.26523ZM266.73306 367.02237L260.64532 360.93463L261.31927 360.26065L261.88275 360.82413Q261.79437 360.2496 261.92694 359.78558Q262.0706 359.3105 262.50146 358.8796Q263.06494 358.31613 263.7831 358.1725Q264.50125 358.02887 265.24152 358.34927Q265.99283 358.65863 266.6226 359.2884Q267.29654 359.96234 267.59485 360.7468Q267.9042 361.5202 267.72745 362.2715Q267.55066 363.0228 267.04242 363.53104Q266.66678 363.90668 266.21378 364.05032Q265.74976 364.1829 265.3299 364.1387L267.47333 366.28214L266.73306 367.02237ZM263.54004 362.4814Q264.39078 363.33215 265.1421 363.39844Q265.88232 363.4537 266.36847 362.96756Q266.86566 362.47037 266.79935 361.69696Q266.73306 360.92358 265.84918 360.0397Q265.0095 359.2 264.25818 359.13373Q263.49585 359.05637 263.0097 359.5425Q262.5346 360.0176 262.61197 360.82413Q262.6893 361.63068 263.54004 362.4814ZM264.77747 355.1673L263.91568 354.3055L264.667 353.5542L265.52878 354.416L264.77747 355.1673ZM269.9924 360.3822L265.59506 355.98486L266.34637 355.23358L270.74368 359.6309L269.9924 360.3822ZM272.10266 358.27194L267.70535 353.8746L268.3793 353.20065L269.0422 353.86356Q268.83228 353.14542 268.8986 352.79184Q268.96487 352.4162 269.23004 352.15103Q269.60568 351.7754 270.2244 351.6207L270.66635 352.5709Q270.2244 352.68137 269.95923 352.94653Q269.70514 353.20065 269.66092 353.5542Q269.61673 353.88565 269.80457 354.22815Q270.06973 354.75848 270.53375 355.22253L272.8429 357.53168L272.10266 358.27194ZM276.5331 351.01303L277.3949 350.32803Q277.8921 351.17877 277.77057 352.0516Q277.64902 352.92444 276.8867 353.68677Q275.92545 354.648 274.7543 354.62592Q273.5942 354.59277 272.5225 353.52106Q271.41763 352.4162 271.3845 351.234Q271.3403 350.04077 272.24628 349.1348Q273.13016 348.2509 274.27924 348.2951Q275.43933 348.32825 276.5331 349.42206Q276.59943 349.48834 276.732 349.6209L273.4506 352.90234Q274.22397 353.58734 274.97528 353.60944Q275.71555 353.62048 276.26794 353.06805Q276.67676 352.65927 276.7541 352.16208Q276.83142 351.6428 276.5331 351.01303ZM272.88712 352.25046L275.33987 349.7977Q274.7322 349.2784 274.22397 349.23422Q273.4285 349.16794 272.86502 349.7314Q272.34573 350.25067 272.3347 350.94675Q272.3347 351.63174 272.88712 352.25046ZM282.7424 347.63217L282.18997 347.07974Q282.422 348.15146 281.61545 348.958Q281.0851 349.48834 280.35593 349.643Q279.61566 349.78665 278.85333 349.51044Q278.09097 349.23422 277.417 348.56027Q276.76514 347.9084 276.44473 347.14606Q276.12433 346.3837 276.29007 345.66553Q276.44473 344.93634 276.9861 344.39496Q277.38385 343.99722 277.85895 343.85358Q278.33405 343.70996 278.79807 343.77625L276.62152 341.59967L277.36176 340.85944L283.43848 346.93613L282.7424 347.63217ZM278.1904 347.78687Q279.04114 348.6376 279.81454 348.7039Q280.5769 348.75912 281.06302 348.273Q281.54916 347.78687 281.49393 347.0466Q281.4387 346.30637 280.6211 345.48877Q279.71512 344.5828 278.9417 344.51648Q278.17935 344.43915 277.6711 344.9474Q277.17395 345.44458 277.25128 346.1848Q277.31757 346.91403 278.1904 347.78687Z" fill-rule="nonzero"/><path fill="#000000" d="M266.0356 411.80212L267.04105 411.21652Q267.77026 412.45398 267.63766 413.62512Q267.5051 414.79626 266.5549 415.74643Q265.5716 416.72977 264.5551 416.95074Q263.53867 417.1717 262.46695 416.7408Q261.3842 416.29886 260.51135 415.42603Q259.5612 414.47586 259.2187 413.40414Q258.87616 412.33243 259.17447 411.30493Q259.48386 410.26636 260.29037 409.4598Q261.19638 408.55383 262.2791 408.39917Q263.37292 408.23343 264.4557 408.83005L263.84802 409.8134Q262.9752 409.36038 262.26807 409.47086Q261.56097 409.55927 260.9533 410.16693Q260.25723 410.86298 260.12466 411.68057Q259.99207 412.47607 260.3567 413.23843Q260.73233 413.98972 261.34 414.59738Q262.1134 415.3708 262.9089 415.72433Q263.71542 416.06683 264.47778 415.87903Q265.24014 415.6912 265.80362 415.12772Q266.47757 414.45377 266.5549 413.60303Q266.6433 412.74124 266.0356 411.80212ZM270.67603 409.4598L269.0077 407.7915L267.36145 409.4377L266.6654 408.74167L268.3116 407.09543L266.6654 405.4492L267.3725 404.7421L269.01874 406.38834L270.67603 404.73105L271.37207 405.4271L269.71478 407.08438L271.38312 408.75272L270.67603 409.4598ZM275.62576 404.51007L273.95743 402.84174L272.3112 404.48798L271.61514 403.79193L273.26138 402.1457L271.61514 400.49945L272.32224 399.79236L273.96848 401.43857L275.62576 399.78128L276.3218 400.47736L274.66455 402.13464L276.3329 403.80298L275.62576 404.51007ZM279.98993 398.20135L280.67496 397.38376Q281.19424 397.79257 281.68036 397.88095Q282.1665 397.96933 282.76312 397.74835Q283.35974 397.50528 283.87903 396.98602Q284.33203 396.53302 284.55298 396.04688Q284.7629 395.5497 284.69662 395.15195Q284.63034 394.73212 284.35413 394.4559Q284.06686 394.16864 283.6912 394.12445Q283.3045 394.06918 282.78522 394.3012Q282.43167 394.4559 281.3931 395.0967Q280.3656 395.72647 279.85736 395.88116Q279.18338 396.0911 278.64203 395.96954Q278.0896 395.83698 277.66974 395.4171Q277.21677 394.96414 277.07312 394.31226Q276.9295 393.6383 277.2278 392.94226Q277.52612 392.2241 278.1338 391.61642Q278.80774 390.94247 279.548 390.64413Q280.2772 390.33478 280.9843 390.48947Q281.68036 390.6331 282.2328 391.14133L281.51465 391.96997Q280.8738 391.46173 280.22195 391.5391Q279.5701 391.59433 278.87402 392.29037Q278.14484 393.0196 278.07855 393.6162Q278.01224 394.21283 278.3879 394.58847Q278.71936 394.91992 279.1613 394.89783Q279.60324 394.87573 280.79648 394.12445Q282.00076 393.3621 282.5311 393.1632Q283.31555 392.887 283.9453 393.00854Q284.56403 393.11902 285.06122 393.6162Q285.54736 394.10236 285.70203 394.80945Q285.84567 395.5055 285.56946 396.26785Q285.2822 397.01917 284.63034 397.67102Q283.8017 398.49966 283.0062 398.83112Q282.2107 399.14047 281.40414 398.97476Q280.60864 398.79797 279.98993 398.20135ZM285.3043 392.40088Q284.0779 391.17447 284.1663 389.91495Q284.24362 388.86533 285.06122 388.04773Q285.9672 387.14175 287.13834 387.16385Q288.30948 387.16385 289.3591 388.21347Q290.20984 389.0642 290.44186 389.80447Q290.6739 390.5447 290.4529 391.3181Q290.23193 392.0694 289.6574 392.64392Q288.7404 393.56097 287.5803 393.54993Q286.4202 393.51678 285.3043 392.40088ZM286.06665 391.63852Q286.90634 392.4782 287.69077 392.53345Q288.48627 392.57764 289.0387 392.0252Q289.60217 391.46173 289.54694 390.6773Q289.4917 389.89285 288.6299 389.03107Q287.81232 388.21347 287.0168 388.16928Q286.23236 388.11404 285.67993 388.66647Q285.1275 389.21887 285.1717 390.01437Q285.2159 390.78778 286.06665 391.63852ZM292.70682 389.39566L286.63013 383.31897L287.3814 382.56766L293.4581 388.64435L292.70682 389.39566ZM289.6353 382.03732L288.77353 381.17554L289.52484 380.42426L290.38663 381.28604L289.6353 382.03732ZM294.85022 387.25226L290.4529 382.85492L291.20422 382.10364L295.60153 386.50095L294.85022 387.25226ZM299.82208 382.2804L299.26965 381.72797Q299.50168 382.79968 298.69513 383.60623Q298.1648 384.13657 297.43558 384.29123Q296.69534 384.43488 295.93298 384.15866Q295.17062 383.88245 294.49667 383.20847Q293.84482 382.5566 293.5244 381.79428Q293.204 381.03192 293.36972 380.31375Q293.5244 379.58456 294.0658 379.04318Q294.46353 378.64542 294.93863 378.5018Q295.4137 378.35815 295.87775 378.42447L293.70117 376.2479L294.44144 375.50766L300.51813 381.58435L299.82208 382.2804ZM295.27008 382.4351Q296.12082 383.28583 296.8942 383.3521Q297.65656 383.40735 298.1427 382.9212Q298.62885 382.4351 298.57358 381.69482Q298.51834 380.9546 297.70074 380.137Q296.79477 379.23102 296.02136 379.1647Q295.25903 379.08737 294.7508 379.5956Q294.2536 380.0928 294.33096 380.83304Q294.39725 381.56226 295.27008 382.4351ZM299.8 378.6565L299.04868 377.90518L301.34677 375.6071L302.09808 376.35837L299.8 378.6565ZM299.53482 372.13785L298.67303 371.27606L299.42432 370.52475L300.2861 371.38654L299.53482 372.13785ZM304.74973 377.35275L300.35242 372.95544L301.1037 372.20413L305.50104 376.60144L304.74973 377.35275ZM306.87103 375.23145L302.47372 370.8341L303.13663 370.1712L303.75534 370.78992Q303.52335 369.58563 304.44037 368.6686Q304.8381 368.27084 305.3132 368.08304Q305.79935 367.88416 306.19708 367.95044Q306.59482 368.01672 306.9705 368.2598Q307.21356 368.43658 307.73282 368.95587L310.43973 371.66275L309.69946 372.403L307.02573 369.72925Q306.56168 369.26523 306.25232 369.13263Q305.94296 369.00006 305.58942 369.08844Q305.22482 369.16577 304.9265 369.46408Q304.45142 369.93918 304.40723 370.60208Q304.36304 371.24292 305.20273 372.0826L307.6113 374.49118L306.87103 375.23145ZM310.2077 369.26523L310.82642 368.42554Q311.33466 368.80118 311.8429 368.757Q312.36218 368.70175 312.88144 368.18246Q313.38968 367.67422 313.43387 367.2323Q313.4781 366.76825 313.19083 366.481Q312.9367 366.22687 312.57208 366.3042Q312.31796 366.35944 311.55563 366.81244Q310.5281 367.4201 310.0641 367.5969Q309.60004 367.75156 309.16913 367.65213Q308.73825 367.5527 308.4068 367.22122Q308.11954 366.93396 307.998 366.54727Q307.87646 366.16058 307.94275 365.76282Q307.998 365.4645 308.20792 365.07782Q308.41785 364.69113 308.7714 364.33755Q309.27963 363.82935 309.821 363.59732Q310.3624 363.3432 310.80432 363.4095Q311.24628 363.47577 311.7324 363.82935L311.10263 364.658Q310.727 364.37073 310.29608 364.42596Q309.8652 364.4591 309.42325 364.90103Q308.91504 365.40927 308.87082 365.80704Q308.81558 366.19373 309.0476 366.42575Q309.19125 366.56937 309.3901 366.59146Q309.61108 366.61356 309.87625 366.50308Q310.0309 366.4368 310.727 366.02798Q311.74344 365.45346 312.1854 365.2767Q312.62735 365.0999 313.05823 365.17725Q313.48914 365.2546 313.87582 365.6413Q314.25146 366.01694 314.36197 366.56937Q314.47244 367.0997 314.25146 367.69632Q314.01944 368.2819 313.50018 368.80118Q312.6384 369.66296 311.83185 369.7624Q311.0253 369.83975 310.2077 369.26523ZM318.46097 367.02237L312.37323 360.9346L313.04718 360.26065L313.61066 360.82413Q313.52228 360.2496 313.65485 359.78555Q313.7985 359.3105 314.22937 358.87958Q314.79285 358.3161 315.51102 358.1725Q316.22916 358.02884 316.96942 358.34924Q317.7207 358.65863 318.3505 359.2884Q319.02444 359.96234 319.32275 360.7468Q319.6321 361.5202 319.45532 362.27148Q319.27856 363.0228 318.77032 363.53104Q318.39468 363.90668 317.94168 364.0503Q317.47766 364.1829 317.0578 364.1387L319.20123 366.2821L318.46097 367.02237ZM315.26794 362.4814Q316.11868 363.33215 316.86996 363.39844Q317.61023 363.45367 318.09637 362.96756Q318.59354 362.47037 318.52725 361.69696Q318.46097 360.92355 317.5771 360.03967Q316.7374 359.19998 315.98608 359.1337Q315.22375 359.05637 314.7376 359.5425Q314.2625 360.01758 314.33987 360.82413Q314.4172 361.63068 315.26794 362.4814ZM316.50537 355.16727L315.6436 354.30548L316.3949 353.5542L317.25668 354.416L316.50537 355.16727ZM321.72028 360.3822L317.32297 355.98486L318.07428 355.23358L322.4716 359.6309L321.72028 360.3822ZM323.83057 358.2719L319.43323 353.8746L320.1072 353.20062L320.7701 353.86356Q320.56018 353.1454 320.6265 352.79184Q320.69278 352.4162 320.95795 352.15103Q321.3336 351.77536 321.9523 351.6207L322.39426 352.57086Q321.9523 352.68137 321.68713 352.94653Q321.433 353.20062 321.38882 353.5542Q321.34464 353.88565 321.53247 354.22815Q321.79764 354.75848 322.26166 355.22253L324.5708 357.53168L323.83057 358.2719ZM328.26102 351.01303L329.1228 350.328Q329.62 351.17874 329.49847 352.05157Q329.37692 352.9244 328.6146 353.68677Q327.65335 354.64798 326.4822 354.6259Q325.3221 354.59274 324.2504 353.52106Q323.14554 352.4162 323.1124 351.234Q323.0682 350.04074 323.97418 349.13477Q324.85806 348.2509 326.0071 348.29507Q327.1672 348.32822 328.26102 349.42203Q328.32733 349.4883 328.4599 349.6209L325.17847 352.9023Q325.95187 353.58734 326.7032 353.60944Q327.44342 353.62048 327.99585 353.06805Q328.40466 352.65927 328.482 352.16208Q328.55933 351.6428 328.26102 351.01303ZM324.61502 352.25046L327.06778 349.7977Q326.4601 349.2784 325.95187 349.23422Q325.15637 349.1679 324.5929 349.73138Q324.07364 350.25067 324.0626 350.94675Q324.0626 351.63174 324.61502 352.25046ZM334.4703 347.63217L333.91788 347.07974Q334.1499 348.15146 333.34335 348.958Q332.81302 349.4883 332.08383 349.643Q331.34357 349.78662 330.5812 349.51044Q329.81888 349.23422 329.1449 348.56024Q328.49304 347.9084 328.17264 347.14603Q327.85223 346.3837 328.01794 345.66553Q328.17264 344.9363 328.71402 344.39496Q329.11176 343.9972 329.58685 343.85358Q330.06195 343.70993 330.52597 343.7762L328.34943 341.59967L329.08966 340.8594L335.16635 346.9361L334.4703 347.63217ZM329.9183 347.78683Q330.76904 348.63757 331.54245 348.7039Q332.30478 348.75912 332.79092 348.27298Q333.27707 347.78683 333.22183 347.0466Q333.16656 346.30634 332.349 345.48874Q331.443 344.58276 330.66962 344.51648Q329.90726 344.43915 329.39902 344.9474Q328.90186 345.44455 328.9792 346.1848Q329.04547 346.914 329.9183 347.78683Z" fill-rule="nonzero"/><path fill="#000000" d="M354.4447 379.38568L348.36798 373.30896L350.66608 371.01086Q351.26273 370.41425 351.63837 370.14908Q352.1687 369.77344 352.67694 369.68506Q353.1962 369.5856 353.74863 369.7845Q354.3121 369.97232 354.7651 370.4253Q355.5385 371.1987 355.5827 372.23727Q355.6269 373.25372 354.3342 374.54642L352.77637 376.10425L355.25125 378.57913L354.4447 379.38568ZM352.06924 375.39716L353.63815 373.82825Q354.4226 373.04382 354.45575 372.43613Q354.4889 371.80637 353.95856 371.27603Q353.58292 370.9004 353.11887 370.8341Q352.65482 370.74573 352.25708 370.96667Q351.9919 371.12137 351.45053 371.66275L349.8927 373.22058L352.06924 375.39716ZM360.0021 373.82825L355.6048 369.43094L356.27875 368.757L356.94165 369.4199Q356.73175 368.70172 356.79803 368.34818Q356.86432 367.97253 357.1295 367.70737Q357.50513 367.33173 358.12387 367.17703L358.5658 368.1272Q358.12387 368.2377 357.8587 368.50287Q357.60458 368.757 357.5604 369.11053Q357.51617 369.442 357.704 369.7845Q357.96918 370.31482 358.43323 370.77887L360.74237 373.088L360.0021 373.82825ZM360.3667 369.06635Q359.14032 367.83994 359.2287 366.5804Q359.30606 365.5308 360.12366 364.7132Q361.02963 363.80722 362.20078 363.8293Q363.37192 363.8293 364.42154 364.87894Q365.27228 365.72968 365.50427 366.46994Q365.7363 367.21017 365.51532 367.98358Q365.29437 368.73486 364.71985 369.3094Q363.8028 370.22644 362.6427 370.2154Q361.4826 370.18225 360.3667 369.06635ZM361.12906 368.304Q361.96875 369.14368 362.7532 369.1989Q363.5487 369.2431 364.10114 368.69067Q364.66458 368.1272 364.60934 367.34277Q364.5541 366.55832 363.69232 365.69653Q362.87473 364.87894 362.07922 364.83475Q361.2948 364.7795 360.74237 365.33194Q360.18994 365.88434 360.23413 366.67984Q360.27832 367.45325 361.12906 368.304ZM367.29416 366.53622L366.60913 362.64713L363.01837 362.01736L363.94644 361.0893L365.64792 361.44284Q366.13406 361.5533 366.45447 361.63068Q366.355 361.17767 366.29977 360.81308L366.00146 359.03427L366.8964 358.1393L367.43777 361.7301L371.4042 362.42615L370.49823 363.33215L368.22223 362.8681L367.61456 362.74658L368.1891 365.6413L367.29416 366.53622ZM372.98416 364.22708L372.1997 363.61942Q372.50906 363.44263 372.6969 363.2548Q372.93994 363.01172 372.9952 362.77972Q373.07254 362.5477 373.02835 362.30463Q372.9731 362.1168 372.6969 361.50912Q372.65268 361.44284 372.5864 361.26605L366.49866 358.53708L367.3052 357.73053L370.7634 359.35468Q371.4263 359.66403 372.11133 360.06177Q371.7246 359.4099 371.41525 358.747L369.7911 355.2446L370.53137 354.50436L373.3377 360.64734Q373.77963 361.64172 373.91223 362.06155Q374.089 362.63608 373.98956 363.067Q373.91223 363.49786 373.5587 363.8514Q373.34875 364.06134 372.98416 364.22708ZM376.9727 356.8577L372.57535 352.4604L373.24933 351.7864L373.91223 352.4493Q373.7023 351.73117 373.7686 351.37762Q373.8349 351.00195 374.10007 350.7368Q374.4757 350.36115 375.09442 350.20648L375.53638 351.15665Q375.09442 351.26712 374.82925 351.5323Q374.57513 351.7864 374.53094 352.13995Q374.48676 352.47144 374.6746 352.81393Q374.93973 353.34427 375.40378 353.8083L377.71292 356.11743L376.9727 356.8577ZM379.3481 354.68112L374.82925 346.64883L375.42587 346.05222L379.94473 354.0845L379.3481 354.68112ZM382.74002 351.09036L376.99478 348.04095L377.76816 347.26755L381.0054 349.11267L382.2097 349.78662Q382.1655 349.69824 381.53574 348.64862L379.65747 345.37827L380.41983 344.6159L383.63495 346.50522L384.69562 347.12393L384.099 346.01907L382.3091 342.7266L383.03833 341.9974L386.05457 347.7758L385.2812 348.5492L381.94452 346.60464L381.0275 346.04117L383.52448 350.3059L382.74002 351.09036Z" fill-rule="nonzero"/><path fill="#000000" d="M404.05124 381.50702L397.97455 375.4303L400.0738 373.3311Q400.78088 372.62396 401.24493 372.3367Q401.88574 371.93896 402.5597 371.88373Q403.45462 371.8064 404.32745 372.21518Q405.2003 372.60187 406.00684 373.40842Q406.7029 374.1045 407.0675 374.80054Q407.44315 375.48553 407.5426 376.09323Q407.64203 376.7009 407.53156 377.20914Q407.4321 377.7063 407.12274 378.23663Q406.80234 378.75592 406.2499 379.30835L404.05124 381.50702ZM404.13965 379.9823L405.4323 378.68964Q406.03998 378.08197 406.272 377.62897Q406.50403 377.17596 406.49298 376.76718Q406.50403 376.2037 406.17258 375.5629Q405.85217 374.911 405.16714 374.226Q404.21698 373.27585 403.38834 373.088Q402.5597 372.87808 401.94098 373.14325Q401.48798 373.35318 400.78088 374.06027L399.49927 375.34192L404.13965 379.9823ZM405.1119 370.0165L404.25012 369.15472L405.00143 368.40344L405.86322 369.26523L405.1119 370.0165ZM410.3268 375.23145L405.9295 370.8341L406.68082 370.08282L411.07812 374.48013L410.3268 375.23145ZM412.4371 373.12115L408.03976 368.72385L408.71375 368.04987L409.37665 368.7128Q409.16672 367.99463 409.23303 367.64108Q409.29932 367.26544 409.56448 367.00027Q409.94012 366.6246 410.55884 366.46994L411.0008 367.4201Q410.55884 367.5306 410.29367 367.79578Q410.03955 368.04987 409.99536 368.40344Q409.95117 368.7349 410.139 369.0774Q410.40417 369.60773 410.8682 370.07178L413.17734 372.38092L412.4371 373.12115ZM416.86755 365.86227L417.72934 365.17725Q418.22653 366.02798 418.105 366.90082Q417.98346 367.77365 417.22113 368.536Q416.2599 369.49725 415.08875 369.47513Q413.92865 369.442 412.85693 368.3703Q411.75208 367.26544 411.71893 366.08325Q411.67474 364.88998 412.58072 363.984Q413.4646 363.10013 414.61365 363.14432Q415.77374 363.17746 416.86755 364.27127Q416.93387 364.33755 417.06644 364.47015L413.78503 367.75156Q414.5584 368.43658 415.30972 368.45868Q416.04996 368.46973 416.6024 367.9173Q417.0112 367.5085 417.08853 367.01132Q417.16586 366.49203 416.86755 365.86227ZM413.22156 367.0997L415.67432 364.64694Q415.06665 364.12766 414.5584 364.08347Q413.7629 364.01715 413.19943 364.58063Q412.68018 365.0999 412.66913 365.796Q412.66913 366.481 413.22156 367.0997ZM421.48584 360.84622L422.31448 360.21646Q422.94427 361.0893 422.87796 362.01736Q422.81168 362.94547 422.09354 363.6636Q421.18753 364.56958 420.04953 364.53644Q418.91153 364.4812 417.8067 363.37634Q417.09958 362.66925 416.80127 361.9069Q416.50296 361.12244 416.7129 360.3822Q416.93387 359.6309 417.5084 359.05637Q418.21548 358.34924 419.03308 358.26086Q419.85068 358.1504 420.65723 358.69177L420.03848 359.53146Q419.49713 359.18893 419.011 359.23315Q418.5138 359.2663 418.13815 359.64194Q417.57468 360.2054 417.6299 360.96777Q417.6741 361.71906 418.54694 362.5919Q419.44186 363.48682 420.18213 363.54208Q420.9224 363.59732 421.46375 363.05594Q421.9057 362.61398 421.9278 362.06155Q421.96094 361.4981 421.48584 360.84622ZM425.43018 358.80225L426.19254 359.34363Q425.93842 359.73032 425.69534 359.9734Q425.28656 360.3822 424.94406 360.48163Q424.59048 360.57 424.28113 360.45953Q423.98282 360.33798 423.30887 359.66403L420.77875 357.1339L420.23737 357.6753L419.66284 357.10077L420.20422 356.5594L419.1104 355.46558L419.40872 354.2834L420.9445 355.81915L421.69577 355.06784L422.2703 355.64236L421.519 356.39368L424.09332 358.968Q424.41373 359.2884 424.53525 359.34363Q424.66785 359.38782 424.81146 359.35468Q424.9551 359.32153 425.12082 359.1558Q425.25342 359.02322 425.43018 358.80225ZM428.70056 356.8577L424.30322 352.4604L424.9772 351.78644L425.6401 352.44934Q425.43018 351.73117 425.4965 351.37762Q425.56277 351.00198 425.82794 350.73682Q426.20358 350.36118 426.8223 350.20648L427.26425 351.15665Q426.8223 351.26715 426.55713 351.53232Q426.303 351.78644 426.25882 352.13998Q426.21463 352.47144 426.40247 352.81393Q426.66763 353.34427 427.13165 353.80832L429.4408 356.11746L428.70056 356.8577ZM431.076 354.68115L426.55713 346.64886L427.15375 346.05222L431.6726 354.08453L431.076 354.68115ZM434.4679 351.09036L428.72266 348.04095L429.49606 347.26758L432.73328 349.11267L433.93756 349.78665Q433.89337 349.69824 433.2636 348.64865L431.38535 345.37827L432.1477 344.6159L435.36282 346.50522L436.4235 347.12393L435.82687 346.01907L434.037 342.72662L434.7662 341.9974L437.78247 347.7758L437.00906 348.5492L433.6724 346.60464L432.75537 346.04117L435.25235 350.3059L434.4679 351.09036Z" fill-rule="nonzero"/><path fill="#757575" d="M27.0875 40.9L27.0875 28.275002L22.36875 28.275002L22.36875 26.587502L33.7125 26.587502L33.7125 28.275002L28.978125 28.275002L28.978125 40.9L27.0875 40.9ZM35.228127 28.603127L35.228127 26.587502L36.99375 26.587502L36.99375 28.603127L35.228127 28.603127ZM35.228127 40.9L35.228127 30.525002L36.99375 30.525002L36.99375 40.9L35.228127 40.9ZM39.2125 40.9L39.2125 30.525002L40.790627 30.525002L40.790627 31.978127Q41.275 31.228127 42.0875 30.759377Q42.9 30.290627 43.93125 30.290627Q45.0875 30.290627 45.821877 30.775002Q46.55625 31.243752 46.86875 32.103127Q48.103127 30.290627 50.071877 30.290627Q51.61875 30.290627 52.446877 31.150002Q53.275 32.009377 53.275 33.775L53.275 40.9L51.525 40.9L51.525 34.36875Q51.525 33.30625 51.353127 32.853127Q51.18125 32.384377 50.728127 32.103127Q50.290627 31.821877 49.68125 31.821877Q48.5875 31.821877 47.853127 32.55625Q47.134377 33.275 47.134377 34.86875L47.134377 40.9L45.384377 40.9L45.384377 34.165627Q45.384377 32.99375 44.946877 32.415627Q44.525 31.821877 43.540627 31.821877Q42.80625 31.821877 42.165627 32.2125Q41.540627 32.603127 41.259377 33.353127Q40.978127 34.103127 40.978127 35.525L40.978127 40.9L39.2125 40.9ZM62.321877 37.55625L64.13438 37.790627Q63.7125 39.36875 62.540627 40.259377Q61.384377 41.134377 59.571877 41.134377Q57.30625 41.134377 55.9625 39.74375Q54.634377 38.3375 54.634377 35.80625Q54.634377 33.18125 55.978127 31.743752Q57.321877 30.290627 59.478127 30.290627Q61.55625 30.290627 62.86875 31.712502Q64.19688 33.11875 64.19688 35.696877Q64.19688 35.853127 64.18125 36.165627L56.446877 36.165627Q56.540627 37.86875 57.415627 38.775Q58.290627 39.68125 59.5875 39.68125Q60.55625 39.68125 61.228127 39.18125Q61.915627 38.665627 62.321877 37.55625ZM56.540627 34.7125L62.3375 34.7125Q62.228127 33.415627 61.68125 32.759377Q60.8375 31.743752 59.49375 31.743752Q58.290627 31.743752 57.4625 32.55625Q56.634377 33.353127 56.540627 34.7125ZM66.68125 40.9L66.68125 38.9L68.68125 38.9L68.68125 40.9Q68.68125 42.009377 68.29063 42.68125Q67.9 43.36875 67.05625 43.728127L66.55625 42.978127Q67.11875 42.74375 67.38438 42.259377Q67.65 41.790627 67.68125 40.9L66.68125 40.9ZM78.2125 40.9L78.2125 30.525002L79.79063 30.525002L79.79063 31.978127Q80.275 31.228127 81.0875 30.759377Q81.9 30.290627 82.93125 30.290627Q84.0875 30.290627 84.82188 30.775002Q85.55625 31.243752 85.86875 32.103127Q87.10313 30.290627 89.07188 30.290627Q90.61875 30.290627 91.44688 31.150002Q92.275 32.009377 92.275 33.775L92.275 40.9L90.525 40.9L90.525 34.36875Q90.525 33.30625 90.35313 32.853127Q90.18125 32.384377 89.72813 32.103127Q89.29063 31.821877 88.68125 31.821877Q87.5875 31.821877 86.85313 32.55625Q86.13438 33.275 86.13438 34.86875L86.13438 40.9L84.38438 40.9L84.38438 34.165627Q84.38438 32.99375 83.94688 32.415627Q83.525 31.821877 82.54063 31.821877Q81.80625 31.821877 81.16563 32.2125Q80.54063 32.603127 80.25938 33.353127Q79.97813 34.103127 79.97813 35.525L79.97813 40.9L78.2125 40.9ZM93.50938 37.80625L95.25938 37.525Q95.4 38.571877 96.07188 39.134377Q96.74375 39.68125 97.94688 39.68125Q99.15 39.68125 99.72813 39.196877Q100.32188 38.696877 100.32188 38.040627Q100.32188 37.446877 99.80625 37.103127Q99.44688 36.86875 98.00938 36.509377Q96.07188 36.009377 95.32188 35.665627Q94.5875 35.30625 94.19688 34.68125Q93.80625 34.040627 93.80625 33.275Q93.80625 32.5875 94.11875 31.993752Q94.44688 31.400002 94.99375 31.009377Q95.4 30.712502 96.10313 30.509377Q96.82188 30.290627 97.63438 30.290627Q98.85313 30.290627 99.775 30.650002Q100.69688 30.993752 101.13438 31.603127Q101.57188 32.196877 101.74375 33.196877L100.025 33.43125Q99.9 32.634377 99.3375 32.196877Q98.775 31.743752 97.75938 31.743752Q96.54063 31.743752 96.025 32.15Q95.50938 32.540627 95.50938 33.071877Q95.50938 33.415627 95.72813 33.696877Q95.93125 33.978127 96.4 34.165627Q96.66563 34.259377 97.94688 34.603127Q99.82188 35.103127 100.55625 35.43125Q101.29063 35.74375 101.7125 36.353127Q102.13438 36.946877 102.13438 37.853127Q102.13438 38.728127 101.61875 39.509377Q101.10313 40.290627 100.13438 40.7125Q99.16563 41.134377 97.94688 41.134377Q95.93125 41.134377 94.86875 40.290627Q93.80625 39.446877 93.50938 37.80625ZM110.63438 40.9L110.63438 31.900002L109.0875 31.900002L109.0875 30.525002L110.63438 30.525002L110.63438 29.431252Q110.63438 28.384377 110.82188 27.868752Q111.07188 27.181252 111.7125 26.759377Q112.35313 26.337502 113.50938 26.337502Q114.25938 26.337502 115.15 26.509377L114.88438 28.040627Q114.3375 27.946877 113.85313 27.946877Q113.05625 27.946877 112.7125 28.290627Q112.38438 28.634377 112.38438 29.571877L112.38438 30.525002L114.41563 30.525002L114.41563 31.900002L112.38438 31.900002L112.38438 40.9L110.63438 40.9ZM115.57188 35.7125Q115.57188 32.8375 117.16563 31.446877Q118.50938 30.290627 120.43125 30.290627Q122.57188 30.290627 123.91563 31.696877Q125.275 33.103127 125.275 35.571877Q125.275 37.571877 124.68125 38.728127Q124.0875 39.86875 122.93125 40.509377Q121.79063 41.134377 120.43125 41.134377Q118.24375 41.134377 116.9 39.74375Q115.57188 38.3375 115.57188 35.7125ZM117.36875 35.7125Q117.36875 37.7125 118.22813 38.696877Q119.10313 39.68125 120.43125 39.68125Q121.74375 39.68125 122.60313 38.696877Q123.47813 37.696877 123.47813 35.65Q123.47813 33.728127 122.60313 32.74375Q121.72813 31.743752 120.43125 31.743752Q119.10313 31.743752 118.22813 32.74375Q117.36875 33.728127 117.36875 35.7125ZM127.19688 40.9L127.19688 30.525002L128.775 30.525002L128.775 32.103127Q129.38437 30.993752 129.9 30.650002Q130.41562 30.290627 131.025 30.290627Q131.91562 30.290627 132.8375 30.853127L132.22812 32.49375Q131.5875 32.103127 130.94687 32.103127Q130.36874 32.103127 129.9 32.4625Q129.44687 32.80625 129.24374 33.415627Q128.9625 34.353127 128.9625 35.4625L128.9625 40.9L127.19688 40.9ZM146.35312 40.9L144.5875 40.9L144.5875 29.696877Q143.9625 30.306252 142.93124 30.915627Q141.9 31.509377 141.07187 31.821877L141.07187 30.118752Q142.55624 29.431252 143.65 28.446877Q144.75937 27.446877 145.2125 26.525002L146.35312 26.525002L146.35312 40.9ZM150.72812 33.8375Q150.72812 31.306252 151.24374 29.759377Q151.775 28.196877 152.80624 27.368752Q153.8375 26.525002 155.4 26.525002Q156.55624 26.525002 157.41562 26.993752Q158.29062 27.446877 158.85312 28.321877Q159.41562 29.196877 159.74374 30.462502Q160.07187 31.712502 160.07187 33.8375Q160.07187 36.353127 159.54062 37.9Q159.025 39.446877 157.99374 40.30625Q156.97812 41.15 155.4 41.15Q153.32187 41.15 152.15 39.665627Q150.72812 37.86875 150.72812 33.8375ZM152.54062 33.8375Q152.54062 37.36875 153.35312 38.540627Q154.18124 39.696877 155.4 39.696877Q156.60312 39.696877 157.43124 38.525Q158.25937 37.353127 158.25937 33.8375Q158.25937 30.306252 157.43124 29.150002Q156.60312 27.978127 155.38437 27.978127Q154.16562 27.978127 153.44687 29.009377Q152.54062 30.306252 152.54062 33.8375ZM161.72812 33.8375Q161.72812 31.306252 162.24374 29.759377Q162.775 28.196877 163.80624 27.368752Q164.8375 26.525002 166.4 26.525002Q167.55624 26.525002 168.41562 26.993752Q169.29062 27.446877 169.85312 28.321877Q170.41562 29.196877 170.74374 30.462502Q171.07187 31.712502 171.07187 33.8375Q171.07187 36.353127 170.54062 37.9Q170.025 39.446877 168.99374 40.30625Q167.97812 41.15 166.4 41.15Q164.32187 41.15 163.15 39.665627Q161.72812 37.86875 161.72812 33.8375ZM163.54062 33.8375Q163.54062 37.36875 164.35312 38.540627Q165.18124 39.696877 166.4 39.696877Q167.60312 39.696877 168.43124 38.525Q169.25937 37.353127 169.25937 33.8375Q169.25937 30.306252 168.43124 29.150002Q167.60312 27.978127 166.38437 27.978127Q165.16562 27.978127 164.44687 29.009377Q163.54062 30.306252 163.54062 33.8375ZM179.2125 40.9L179.2125 30.525002L180.79062 30.525002L180.79062 31.978127Q181.275 31.228127 182.0875 30.759377Q182.9 30.290627 183.93124 30.290627Q185.0875 30.290627 185.82187 30.775002Q186.55624 31.243752 186.86874 32.103127Q188.10312 30.290627 190.07187 30.290627Q191.61874 30.290627 192.44687 31.150002Q193.275 32.009377 193.275 33.775L193.275 40.9L191.525 40.9L191.525 34.36875Q191.525 33.30625 191.35312 32.853127Q191.18124 32.384377 190.72812 32.103127Q190.29062 31.821877 189.68124 31.821877Q188.5875 31.821877 187.85312 32.55625Q187.13437 33.275 187.13437 34.86875L187.13437 40.9L185.38437 40.9L185.38437 34.165627Q185.38437 32.99375 184.94687 32.415627Q184.525 31.821877 183.54062 31.821877Q182.80624 31.821877 182.16562 32.2125Q181.54062 32.603127 181.25937 33.353127Q180.97812 34.103127 180.97812 35.525L180.97812 40.9L179.2125 40.9ZM195.22812 28.603127L195.22812 26.587502L196.99374 26.587502L196.99374 28.603127L195.22812 28.603127ZM195.22812 40.9L195.22812 30.525002L196.99374 30.525002L196.99374 40.9L195.22812 40.9ZM199.18124 40.9L199.18124 26.587502L200.93124 26.587502L200.93124 40.9L199.18124 40.9ZM203.18124 40.9L203.18124 26.587502L204.93124 26.587502L204.93124 40.9L203.18124 40.9ZM207.22812 28.603127L207.22812 26.587502L208.99374 26.587502L208.99374 28.603127L207.22812 28.603127ZM207.22812 40.9L207.22812 30.525002L208.99374 30.525002L208.99374 40.9L207.22812 40.9ZM210.57187 35.7125Q210.57187 32.8375 212.16562 31.446877Q213.50937 30.290627 215.43124 30.290627Q217.57187 30.290627 218.91562 31.696877Q220.275 33.103127 220.275 35.571877Q220.275 37.571877 219.68124 38.728127Q219.0875 39.86875 217.93124 40.509377Q216.79062 41.134377 215.43124 41.134377Q213.24374 41.134377 211.9 39.74375Q210.57187 38.3375 210.57187 35.7125ZM212.36874 35.7125Q212.36874 37.7125 213.22812 38.696877Q214.10312 39.68125 215.43124 39.68125Q216.74374 39.68125 217.60312 38.696877Q218.47812 37.696877 218.47812 35.65Q218.47812 33.728127 217.60312 32.74375Q216.72812 31.743752 215.43124 31.743752Q214.10312 31.743752 213.22812 32.74375Q212.36874 33.728127 212.36874 35.7125ZM222.2125 40.9L222.2125 30.525002L223.80624 30.525002L223.80624 32.009377Q224.94687 30.290627 227.10312 30.290627Q228.04062 30.290627 228.82187 30.634377Q229.61874 30.962502 230.00937 31.509377Q230.4 32.05625 230.55624 32.80625Q230.65 33.30625 230.65 34.525L230.65 40.9L228.88437 40.9L228.88437 34.5875Q228.88437 33.509377 228.68124 32.978127Q228.47812 32.446877 227.94687 32.134377Q227.43124 31.821877 226.72812 31.821877Q225.60312 31.821877 224.79062 32.540627Q223.97812 33.24375 223.97812 35.228127L223.97812 40.9L222.2125 40.9ZM238.19687 40.9L238.19687 30.525002L239.775 30.525002L239.775 32.103127Q240.38437 30.993752 240.9 30.650002Q241.41562 30.290627 242.025 30.290627Q242.91562 30.290627 243.8375 30.853127L243.22812 32.49375Q242.5875 32.103127 241.94687 32.103127Q241.36874 32.103127 240.9 32.4625Q240.44687 32.80625 240.24374 33.415627Q239.9625 34.353127 239.9625 35.4625L239.9625 40.9L238.19687 40.9ZM252.32187 37.55625L254.13437 37.790627Q253.7125 39.36875 252.54062 40.259377Q251.38437 41.134377 249.57187 41.134377Q247.30624 41.134377 245.9625 39.74375Q244.63437 38.3375 244.63437 35.80625Q244.63437 33.18125 245.97812 31.743752Q247.32187 30.290627 249.47812 30.290627Q251.55624 30.290627 252.86874 31.712502Q254.19687 33.11875 254.19687 35.696877Q254.19687 35.853127 254.18124 36.165627L246.44687 36.165627Q246.54062 37.86875 247.41562 38.775Q248.29062 39.68125 249.5875 39.68125Q250.55624 39.68125 251.22812 39.18125Q251.91562 38.665627 252.32187 37.55625ZM246.54062 34.7125L252.3375 34.7125Q252.22812 33.415627 251.68124 32.759377Q250.8375 31.743752 249.49374 31.743752Q248.29062 31.743752 247.4625 32.55625Q246.63437 33.353127 246.54062 34.7125ZM262.99374 39.61875Q262.00937 40.446877 261.10312 40.790627Q260.19687 41.134377 259.16562 41.134377Q257.4625 41.134377 256.54062 40.30625Q255.61874 39.4625 255.61874 38.165627Q255.61874 37.4 255.9625 36.775Q256.32187 36.15 256.88437 35.775Q257.44687 35.384377 258.15 35.18125Q258.66562 35.05625 259.7125 34.915627Q261.8375 34.665627 262.8375 34.321877Q262.85312 33.9625 262.85312 33.853127Q262.85312 32.790627 262.35312 32.3375Q261.68124 31.743752 260.35312 31.743752Q259.10312 31.743752 258.50937 32.18125Q257.93124 32.61875 257.65 33.728127L255.93124 33.49375Q256.16562 32.384377 256.69687 31.712502Q257.22812 31.025002 258.24374 30.665627Q259.25937 30.290627 260.60312 30.290627Q261.93124 30.290627 262.75937 30.603127Q263.5875 30.915627 263.97812 31.400002Q264.36874 31.868752 264.525 32.5875Q264.61874 33.040627 264.61874 34.2125L264.61874 36.55625Q264.61874 39.009377 264.72812 39.665627Q264.8375 40.30625 265.18124 40.9L263.3375 40.9Q263.07187 40.353127 262.99374 39.61875ZM262.8375 35.696877Q261.88437 36.0875 259.9625 36.353127Q258.88437 36.509377 258.43124 36.7125Q257.99374 36.9 257.74374 37.275Q257.49374 37.65 257.49374 38.11875Q257.49374 38.821877 258.025 39.290627Q258.55624 39.759377 259.5875 39.759377Q260.60312 39.759377 261.38437 39.321877Q262.18124 38.86875 262.55624 38.103127Q262.8375 37.49375 262.8375 36.3375L262.8375 35.696877ZM273.99374 37.103127L275.7125 37.321877Q275.43124 39.11875 274.25937 40.134377Q273.10312 41.134377 271.4 41.134377Q269.275 41.134377 267.97812 39.74375Q266.68124 38.353127 266.68124 35.759377Q266.68124 34.071877 267.22812 32.821877Q267.79062 31.556252 268.93124 30.931252Q270.07187 30.290627 271.41562 30.290627Q273.10312 30.290627 274.16562 31.150002Q275.24374 32.009377 275.55624 33.571877L273.8375 33.8375Q273.60312 32.790627 272.97812 32.275Q272.35312 31.743752 271.47812 31.743752Q270.15 31.743752 269.32187 32.696877Q268.49374 33.65 268.49374 35.696877Q268.49374 37.790627 269.29062 38.74375Q270.0875 39.68125 271.38437 39.68125Q272.41562 39.68125 273.10312 39.05625Q273.80624 38.415627 273.99374 37.103127ZM281.05624 39.321877L281.30624 40.884377Q280.57187 41.040627 279.97812 41.040627Q279.025 41.040627 278.49374 40.74375Q277.97812 40.43125 277.75937 39.946877Q277.54062 39.446877 277.54062 37.86875L277.54062 31.900002L276.25937 31.900002L276.25937 30.525002L277.54062 30.525002L277.54062 27.962502L279.29062 26.900002L279.29062 30.525002L281.05624 30.525002L281.05624 31.900002L279.29062 31.900002L279.29062 37.9625Q279.29062 38.7125 279.38437 38.93125Q279.47812 39.134377 279.68124 39.275Q279.9 39.4 280.29062 39.4Q280.57187 39.4 281.05624 39.321877ZM283.22812 28.603127L283.22812 26.587502L284.99374 26.587502L284.99374 28.603127L283.22812 28.603127ZM283.22812 40.9L283.22812 30.525002L284.99374 30.525002L284.99374 40.9L283.22812 40.9ZM290.10312 40.9L286.15 30.525002L288.00937 30.525002L290.24374 36.74375Q290.60312 37.74375 290.9 38.821877Q291.13437 38.009377 291.55624 36.853127L293.85312 30.525002L295.66562 30.525002L291.74374 40.9L290.10312 40.9ZM303.32187 37.55625L305.13437 37.790627Q304.7125 39.36875 303.54062 40.259377Q302.38437 41.134377 300.57187 41.134377Q298.30624 41.134377 296.9625 39.74375Q295.63437 38.3375 295.63437 35.80625Q295.63437 33.18125 296.97812 31.743752Q298.32187 30.290627 300.47812 30.290627Q302.55624 30.290627 303.86874 31.712502Q305.19687 33.11875 305.19687 35.696877Q305.19687 35.853127 305.18124 36.165627L297.44687 36.165627Q297.54062 37.86875 298.41562 38.775Q299.29062 39.68125 300.5875 39.68125Q301.55624 39.68125 302.22812 39.18125Q302.91562 38.665627 303.32187 37.55625ZM297.54062 34.7125L303.3375 34.7125Q303.22812 33.415627 302.68124 32.759377Q301.8375 31.743752 300.49374 31.743752Q299.29062 31.743752 298.4625 32.55625Q297.63437 33.353127 297.54062 34.7125ZM315.13437 40.9L311.9625 30.525002L313.775 30.525002L315.43124 36.509377L316.04062 38.74375Q316.0875 38.571877 316.57187 36.603127L318.22812 30.525002L320.04062 30.525002L321.5875 36.540627L322.10312 38.525L322.69687 36.525L324.47812 30.525002L326.18124 30.525002L322.94687 40.9L321.11874 40.9L319.4625 34.68125L319.07187 32.915627L316.9625 40.9L315.13437 40.9ZM328.19687 40.9L328.19687 30.525002L329.775 30.525002L329.775 32.103127Q330.38437 30.993752 330.9 30.650002Q331.41562 30.290627 332.025 30.290627Q332.91562 30.290627 333.8375 30.853127L333.22812 32.49375Q332.5875 32.103127 331.94687 32.103127Q331.36874 32.103127 330.9 32.4625Q330.44687 32.80625 330.24374 33.415627Q329.9625 34.353127 329.9625 35.4625L329.9625 40.9L328.19687 40.9ZM335.22812 28.603127L335.22812 26.587502L336.99374 26.587502L336.99374 28.603127L335.22812 28.603127ZM335.22812 40.9L335.22812 30.525002L336.99374 30.525002L336.99374 40.9L335.22812 40.9ZM343.05624 39.321877L343.30624 40.884377Q342.57187 41.040627 341.97812 41.040627Q341.025 41.040627 340.49374 40.74375Q339.97812 40.43125 339.75937 39.946877Q339.54062 39.446877 339.54062 37.86875L339.54062 31.900002L338.25937 31.900002L338.25937 30.525002L339.54062 30.525002L339.54062 27.962502L341.29062 26.900002L341.29062 30.525002L343.05624 30.525002L343.05624 31.900002L341.29062 31.900002L341.29062 37.9625Q341.29062 38.7125 341.38437 38.93125Q341.47812 39.134377 341.68124 39.275Q341.9 39.4 342.29062 39.4Q342.57187 39.4 343.05624 39.321877ZM352.32187 37.55625L354.13437 37.790627Q353.7125 39.36875 352.54062 40.259377Q351.38437 41.134377 349.57187 41.134377Q347.30624 41.134377 345.9625 39.74375Q344.63437 38.3375 344.63437 35.80625Q344.63437 33.18125 345.97812 31.743752Q347.32187 30.290627 349.47812 30.290627Q351.55624 30.290627 352.86874 31.712502Q354.19687 33.11875 354.19687 35.696877Q354.19687 35.853127 354.18124 36.165627L346.44687 36.165627Q346.54062 37.86875 347.41562 38.775Q348.29062 39.68125 349.5875 39.68125Q350.55624 39.68125 351.22812 39.18125Q351.91562 38.665627 352.32187 37.55625ZM346.54062 34.7125L352.3375 34.7125Q352.22812 33.415627 351.68124 32.759377Q350.8375 31.743752 349.49374 31.743752Q348.29062 31.743752 347.4625 32.55625Q346.63437 33.353127 346.54062 34.7125ZM355.50937 37.80625L357.25937 37.525Q357.4 38.571877 358.07187 39.134377Q358.74374 39.68125 359.94687 39.68125Q361.15 39.68125 361.72812 39.196877Q362.32187 38.696877 362.32187 38.040627Q362.32187 37.446877 361.80624 37.103127Q361.44687 36.86875 360.00937 36.509377Q358.07187 36.009377 357.32187 35.665627Q356.5875 35.30625 356.19687 34.68125Q355.80624 34.040627 355.80624 33.275Q355.80624 32.5875 356.11874 31.993752Q356.44687 31.400002 356.99374 31.009377Q357.4 30.712502 358.10312 30.509377Q358.82187 30.290627 359.63437 30.290627Q360.85312 30.290627 361.775 30.650002Q362.69687 30.993752 363.13437 31.603127Q363.57187 32.196877 363.74374 33.196877L362.025 33.43125Q361.9 32.634377 361.3375 32.196877Q360.775 31.743752 359.75937 31.743752Q358.54062 31.743752 358.025 32.15Q357.50937 32.540627 357.50937 33.071877Q357.50937 33.415627 357.72812 33.696877Q357.93124 33.978127 358.4 34.165627Q358.66562 34.259377 359.94687 34.603127Q361.82187 35.103127 362.55624 35.43125Q363.29062 35.74375 363.7125 36.353127Q364.13437 36.946877 364.13437 37.853127Q364.13437 38.728127 363.61874 39.509377Q363.10312 40.290627 362.13437 40.7125Q361.16562 41.134377 359.94687 41.134377Q357.93124 41.134377 356.86874 40.290627Q355.80624 39.446877 355.50937 37.80625Z" fill-rule="nonzero"/></svg>